<mxfile host="65bd71144e">
    <diagram id="OUazF247awG5Shnst579" name="Page-1">
        <mxGraphModel dx="2794" dy="1243" grid="1" gridSize="10" guides="1" tooltips="1" connect="1" arrows="1" fold="1" page="1" pageScale="1" pageWidth="1100" pageHeight="850" math="0" shadow="0">
            <root>
                <mxCell id="0"/>
                <mxCell id="1" parent="0"/>
                <mxCell id="31" value="MyStore -&amp;gt; Login" style="rounded=0;whiteSpace=wrap;html=1;align=left;verticalAlign=top;" vertex="1" parent="1">
                    <mxGeometry x="-60" y="-100" width="230" height="330" as="geometry"/>
                </mxCell>
                <mxCell id="32" value="" style="rounded=0;whiteSpace=wrap;html=1;" vertex="1" parent="1">
                    <mxGeometry x="-40" y="-40" width="190" height="230" as="geometry"/>
                </mxCell>
                <mxCell id="33" value="Username" style="rounded=0;whiteSpace=wrap;html=1;align=left;fillColor=#FFFFFF;fontColor=#000000;" vertex="1" parent="1">
                    <mxGeometry x="-30" y="10" width="170" height="30" as="geometry"/>
                </mxCell>
                <mxCell id="34" value="Password" style="rounded=0;whiteSpace=wrap;html=1;align=left;fillColor=#FFFFFF;fontColor=#000000;" vertex="1" parent="1">
                    <mxGeometry x="-30" y="72" width="170" height="30" as="geometry"/>
                </mxCell>
                <mxCell id="36" value="&lt;span style=&quot;white-space: pre;&quot;&gt;&#9;&lt;/span&gt;MyStore / Admin" style="rounded=0;whiteSpace=wrap;html=1;align=left;verticalAlign=top;" vertex="1" parent="1">
                    <mxGeometry x="100" y="470" width="230" height="330" as="geometry"/>
                </mxCell>
                <mxCell id="39" value="" style="endArrow=none;html=1;exitX=0.002;exitY=0.09;exitDx=0;exitDy=0;exitPerimeter=0;" edge="1" parent="1">
                    <mxGeometry width="50" height="50" relative="1" as="geometry">
                        <mxPoint x="100.46000000000004" y="497.70000000000005" as="sourcePoint"/>
                        <mxPoint x="330" y="498" as="targetPoint"/>
                    </mxGeometry>
                </mxCell>
                <mxCell id="40" value="" style="endArrow=none;html=1;exitX=0.002;exitY=0.09;exitDx=0;exitDy=0;exitPerimeter=0;" edge="1" parent="1">
                    <mxGeometry width="50" height="50" relative="1" as="geometry">
                        <mxPoint x="-59.539999999999964" y="-75.29999999999995" as="sourcePoint"/>
                        <mxPoint x="170" y="-75" as="targetPoint"/>
                    </mxGeometry>
                </mxCell>
                <mxCell id="47" value="" style="group" vertex="1" connectable="0" parent="1">
                    <mxGeometry x="107.99999999999997" y="481" width="10.000000000000028" height="6" as="geometry"/>
                </mxCell>
                <mxCell id="48" value="" style="endArrow=none;html=1;" edge="1" parent="47">
                    <mxGeometry width="50" height="50" relative="1" as="geometry">
                        <mxPoint x="2.842170943040401e-14" as="sourcePoint"/>
                        <mxPoint x="10.000000000000028" as="targetPoint"/>
                    </mxGeometry>
                </mxCell>
                <mxCell id="49" value="" style="endArrow=none;html=1;" edge="1" parent="47">
                    <mxGeometry width="50" height="50" relative="1" as="geometry">
                        <mxPoint y="3" as="sourcePoint"/>
                        <mxPoint x="10" y="3" as="targetPoint"/>
                    </mxGeometry>
                </mxCell>
                <mxCell id="50" value="" style="endArrow=none;html=1;" edge="1" parent="47">
                    <mxGeometry width="50" height="50" relative="1" as="geometry">
                        <mxPoint y="6" as="sourcePoint"/>
                        <mxPoint x="10" y="6" as="targetPoint"/>
                    </mxGeometry>
                </mxCell>
                <mxCell id="59" value="" style="group" vertex="1" connectable="0" parent="1">
                    <mxGeometry x="128" y="650" width="50" height="61" as="geometry"/>
                </mxCell>
                <mxCell id="54" value="" style="group;aspect=fixed;" vertex="1" connectable="0" parent="59">
                    <mxGeometry x="10" width="30" height="44.25" as="geometry"/>
                </mxCell>
                <mxCell id="53" value="" style="shape=or;whiteSpace=wrap;html=1;rounded=1;shadow=0;glass=0;flipH=1;flipV=1;direction=south;" vertex="1" parent="54">
                    <mxGeometry y="21.75" width="30" height="22.5" as="geometry"/>
                </mxCell>
                <mxCell id="52" value="" style="ellipse;whiteSpace=wrap;html=1;aspect=fixed;rounded=1;shadow=0;glass=0;" vertex="1" parent="54">
                    <mxGeometry x="5.625" width="18.75" height="18.75" as="geometry"/>
                </mxCell>
                <mxCell id="58" value="Users" style="text;html=1;strokeColor=none;fillColor=none;align=center;verticalAlign=middle;whiteSpace=wrap;rounded=0;shadow=0;glass=0;" vertex="1" parent="59">
                    <mxGeometry y="45.25" width="50" height="15.75" as="geometry"/>
                </mxCell>
                <mxCell id="71" value="&lt;span style=&quot;white-space: pre;&quot;&gt;&#9;&lt;/span&gt;MyStore / Products" style="rounded=0;whiteSpace=wrap;html=1;align=left;verticalAlign=top;" vertex="1" parent="1">
                    <mxGeometry x="880" y="-530" width="230" height="330" as="geometry"/>
                </mxCell>
                <mxCell id="72" value="&lt;span style=&quot;&quot;&gt;&#9;&lt;/span&gt;&lt;span style=&quot;white-space: pre;&quot;&gt;&#9;&lt;/span&gt;MyStore / Products&amp;nbsp;/ Details" style="rounded=0;whiteSpace=wrap;html=1;align=left;verticalAlign=top;" vertex="1" parent="1">
                    <mxGeometry x="1230" y="-550" width="230" height="460" as="geometry"/>
                </mxCell>
                <mxCell id="101" value="" style="shape=table;startSize=0;container=1;collapsible=0;childLayout=tableLayout;fixedRows=1;rowLines=0;fontStyle=1;rounded=1;shadow=0;glass=0;strokeColor=#FFFFFF;arcSize=0;" vertex="1" parent="1">
                    <mxGeometry x="895" y="-450" width="195" height="90" as="geometry"/>
                </mxCell>
                <mxCell id="102" value="" style="shape=tableRow;horizontal=0;startSize=0;swimlaneHead=0;swimlaneBody=0;top=0;left=0;bottom=0;right=0;collapsible=0;dropTarget=0;fillColor=none;points=[[0,0.5],[1,0.5]];portConstraint=eastwest;rounded=1;shadow=0;glass=0;strokeColor=#FFFFFF;" vertex="1" parent="101">
                    <mxGeometry width="195" height="30" as="geometry"/>
                </mxCell>
                <mxCell id="103" value="1" style="shape=partialRectangle;html=1;whiteSpace=wrap;connectable=0;fillColor=none;top=0;left=0;bottom=0;right=0;overflow=hidden;pointerEvents=1;rounded=1;shadow=0;glass=0;strokeColor=#FFFFFF;" vertex="1" parent="102">
                    <mxGeometry width="43" height="30" as="geometry">
                        <mxRectangle width="43" height="30" as="alternateBounds"/>
                    </mxGeometry>
                </mxCell>
                <mxCell id="104" value="product 1" style="shape=partialRectangle;html=1;whiteSpace=wrap;connectable=0;fillColor=none;top=0;left=0;bottom=0;right=0;align=left;spacingLeft=6;overflow=hidden;rounded=1;shadow=0;glass=0;strokeColor=#FFFFFF;" vertex="1" parent="102">
                    <mxGeometry x="43" width="152" height="30" as="geometry">
                        <mxRectangle width="152" height="30" as="alternateBounds"/>
                    </mxGeometry>
                </mxCell>
                <mxCell id="105" value="" style="shape=tableRow;horizontal=0;startSize=0;swimlaneHead=0;swimlaneBody=0;top=0;left=0;bottom=0;right=0;collapsible=0;dropTarget=0;fillColor=none;points=[[0,0.5],[1,0.5]];portConstraint=eastwest;rounded=1;shadow=0;glass=0;strokeColor=#FFFFFF;" vertex="1" parent="101">
                    <mxGeometry y="30" width="195" height="30" as="geometry"/>
                </mxCell>
                <mxCell id="106" value="2" style="shape=partialRectangle;html=1;whiteSpace=wrap;connectable=0;fillColor=none;top=0;left=0;bottom=0;right=0;overflow=hidden;rounded=1;shadow=0;glass=0;strokeColor=#FFFFFF;" vertex="1" parent="105">
                    <mxGeometry width="43" height="30" as="geometry">
                        <mxRectangle width="43" height="30" as="alternateBounds"/>
                    </mxGeometry>
                </mxCell>
                <mxCell id="107" value="Product 2" style="shape=partialRectangle;html=1;whiteSpace=wrap;connectable=0;fillColor=none;top=0;left=0;bottom=0;right=0;align=left;spacingLeft=6;overflow=hidden;rounded=1;shadow=0;glass=0;strokeColor=#FFFFFF;" vertex="1" parent="105">
                    <mxGeometry x="43" width="152" height="30" as="geometry">
                        <mxRectangle width="152" height="30" as="alternateBounds"/>
                    </mxGeometry>
                </mxCell>
                <mxCell id="108" value="" style="shape=tableRow;horizontal=0;startSize=0;swimlaneHead=0;swimlaneBody=0;top=0;left=0;bottom=0;right=0;collapsible=0;dropTarget=0;fillColor=none;points=[[0,0.5],[1,0.5]];portConstraint=eastwest;rounded=1;shadow=0;glass=0;strokeColor=#FFFFFF;" vertex="1" parent="101">
                    <mxGeometry y="60" width="195" height="30" as="geometry"/>
                </mxCell>
                <mxCell id="109" value="3" style="shape=partialRectangle;html=1;whiteSpace=wrap;connectable=0;fillColor=none;top=0;left=0;bottom=0;right=0;overflow=hidden;rounded=1;shadow=0;glass=0;strokeColor=#FFFFFF;" vertex="1" parent="108">
                    <mxGeometry width="43" height="30" as="geometry">
                        <mxRectangle width="43" height="30" as="alternateBounds"/>
                    </mxGeometry>
                </mxCell>
                <mxCell id="110" value="Product 3" style="shape=partialRectangle;html=1;whiteSpace=wrap;connectable=0;fillColor=none;top=0;left=0;bottom=0;right=0;align=left;spacingLeft=6;overflow=hidden;rounded=1;shadow=0;glass=0;strokeColor=#FFFFFF;" vertex="1" parent="108">
                    <mxGeometry x="43" width="152" height="30" as="geometry">
                        <mxRectangle width="152" height="30" as="alternateBounds"/>
                    </mxGeometry>
                </mxCell>
                <mxCell id="116" value="" style="endArrow=none;html=1;entryX=0.996;entryY=0.024;entryDx=0;entryDy=0;entryPerimeter=0;" edge="1" parent="1" target="105">
                    <mxGeometry width="50" height="50" relative="1" as="geometry">
                        <mxPoint x="895" y="-420" as="sourcePoint"/>
                        <mxPoint x="1035" y="-430" as="targetPoint"/>
                    </mxGeometry>
                </mxCell>
                <mxCell id="117" value="" style="endArrow=none;html=1;entryX=0.988;entryY=0.019;entryDx=0;entryDy=0;entryPerimeter=0;" edge="1" parent="1" target="108">
                    <mxGeometry width="50" height="50" relative="1" as="geometry">
                        <mxPoint x="895" y="-390" as="sourcePoint"/>
                        <mxPoint x="1074.28" y="-389.28" as="targetPoint"/>
                    </mxGeometry>
                </mxCell>
                <mxCell id="129" value="" style="group" vertex="1" connectable="0" parent="1">
                    <mxGeometry x="888" y="-520" width="10.000000000000028" height="6" as="geometry"/>
                </mxCell>
                <mxCell id="130" value="" style="endArrow=none;html=1;" edge="1" parent="129">
                    <mxGeometry width="50" height="50" relative="1" as="geometry">
                        <mxPoint x="2.842170943040401e-14" as="sourcePoint"/>
                        <mxPoint x="10.000000000000028" as="targetPoint"/>
                    </mxGeometry>
                </mxCell>
                <mxCell id="131" value="" style="endArrow=none;html=1;" edge="1" parent="129">
                    <mxGeometry width="50" height="50" relative="1" as="geometry">
                        <mxPoint y="3" as="sourcePoint"/>
                        <mxPoint x="10" y="3" as="targetPoint"/>
                    </mxGeometry>
                </mxCell>
                <mxCell id="132" value="" style="endArrow=none;html=1;" edge="1" parent="129">
                    <mxGeometry width="50" height="50" relative="1" as="geometry">
                        <mxPoint y="6" as="sourcePoint"/>
                        <mxPoint x="10" y="6" as="targetPoint"/>
                    </mxGeometry>
                </mxCell>
                <mxCell id="133" value="" style="group" vertex="1" connectable="0" parent="1">
                    <mxGeometry x="1238" y="-540" width="10.000000000000028" height="6" as="geometry"/>
                </mxCell>
                <mxCell id="134" value="" style="endArrow=none;html=1;" edge="1" parent="133">
                    <mxGeometry width="50" height="50" relative="1" as="geometry">
                        <mxPoint x="2.842170943040401e-14" as="sourcePoint"/>
                        <mxPoint x="10.000000000000028" as="targetPoint"/>
                    </mxGeometry>
                </mxCell>
                <mxCell id="135" value="" style="endArrow=none;html=1;" edge="1" parent="133">
                    <mxGeometry width="50" height="50" relative="1" as="geometry">
                        <mxPoint y="3" as="sourcePoint"/>
                        <mxPoint x="10" y="3" as="targetPoint"/>
                    </mxGeometry>
                </mxCell>
                <mxCell id="136" value="" style="endArrow=none;html=1;" edge="1" parent="133">
                    <mxGeometry width="50" height="50" relative="1" as="geometry">
                        <mxPoint y="6" as="sourcePoint"/>
                        <mxPoint x="10" y="6" as="targetPoint"/>
                    </mxGeometry>
                </mxCell>
                <mxCell id="137" value="Name:" style="text;html=1;strokeColor=none;fillColor=none;align=left;verticalAlign=middle;whiteSpace=wrap;rounded=0;shadow=0;glass=0;" vertex="1" parent="1">
                    <mxGeometry x="1234" y="-430.5" width="42" height="24" as="geometry"/>
                </mxCell>
                <mxCell id="138" value="Name product" style="html=1;shadow=0;dashed=0;shape=mxgraph.bootstrap.rrect;rSize=5;strokeColor=#CED4DA;strokeWidth=1;fillColor=#E9ECEF;fontColor=#505050;whiteSpace=wrap;align=left;verticalAlign=middle;spacingLeft=10;fontSize=14;rounded=1;glass=0;" vertex="1" parent="1">
                    <mxGeometry x="1275" y="-429.5" width="165" height="25" as="geometry"/>
                </mxCell>
                <mxCell id="139" value="Price:" style="text;html=1;strokeColor=none;fillColor=none;align=left;verticalAlign=middle;whiteSpace=wrap;rounded=0;shadow=0;glass=0;" vertex="1" parent="1">
                    <mxGeometry x="1234" y="-390.5" width="42" height="24" as="geometry"/>
                </mxCell>
                <mxCell id="140" value="1000.00" style="html=1;shadow=0;dashed=0;shape=mxgraph.bootstrap.rrect;rSize=5;strokeColor=#CED4DA;strokeWidth=1;fillColor=#E9ECEF;fontColor=#505050;whiteSpace=wrap;align=left;verticalAlign=middle;spacingLeft=10;fontSize=14;rounded=1;glass=0;" vertex="1" parent="1">
                    <mxGeometry x="1275" y="-389.5" width="95" height="25" as="geometry"/>
                </mxCell>
                <mxCell id="141" value="Amount:" style="text;html=1;strokeColor=none;fillColor=none;align=left;verticalAlign=middle;whiteSpace=wrap;rounded=0;shadow=0;glass=0;" vertex="1" parent="1">
                    <mxGeometry x="1234" y="-350.5" width="42" height="24" as="geometry"/>
                </mxCell>
                <mxCell id="142" value="10" style="html=1;shadow=0;dashed=0;shape=mxgraph.bootstrap.rrect;rSize=5;strokeColor=#CED4DA;strokeWidth=1;fillColor=#E9ECEF;fontColor=#505050;whiteSpace=wrap;align=left;verticalAlign=middle;spacingLeft=10;fontSize=14;rounded=1;glass=0;" vertex="1" parent="1">
                    <mxGeometry x="1285" y="-349.5" width="95" height="25" as="geometry"/>
                </mxCell>
                <mxCell id="152" value="&lt;span style=&quot;white-space: pre;&quot;&gt;&#9;&lt;/span&gt;MyStore / Users" style="rounded=0;whiteSpace=wrap;html=1;align=left;verticalAlign=top;" vertex="1" parent="1">
                    <mxGeometry x="147" y="980" width="230" height="330" as="geometry"/>
                </mxCell>
                <mxCell id="153" value="" style="endArrow=none;html=1;exitX=0.002;exitY=0.09;exitDx=0;exitDy=0;exitPerimeter=0;" edge="1" parent="1">
                    <mxGeometry width="50" height="50" relative="1" as="geometry">
                        <mxPoint x="147.46000000000004" y="1005.7" as="sourcePoint"/>
                        <mxPoint x="376.9999999999998" y="1006" as="targetPoint"/>
                    </mxGeometry>
                </mxCell>
                <mxCell id="154" value="" style="group" vertex="1" connectable="0" parent="1">
                    <mxGeometry x="155" y="990" width="10.000000000000028" height="6" as="geometry"/>
                </mxCell>
                <mxCell id="155" value="" style="endArrow=none;html=1;" edge="1" parent="154">
                    <mxGeometry width="50" height="50" relative="1" as="geometry">
                        <mxPoint x="2.842170943040401e-14" as="sourcePoint"/>
                        <mxPoint x="10.000000000000028" as="targetPoint"/>
                    </mxGeometry>
                </mxCell>
                <mxCell id="156" value="" style="endArrow=none;html=1;" edge="1" parent="154">
                    <mxGeometry width="50" height="50" relative="1" as="geometry">
                        <mxPoint y="3" as="sourcePoint"/>
                        <mxPoint x="10" y="3" as="targetPoint"/>
                    </mxGeometry>
                </mxCell>
                <mxCell id="157" value="" style="endArrow=none;html=1;" edge="1" parent="154">
                    <mxGeometry width="50" height="50" relative="1" as="geometry">
                        <mxPoint y="6" as="sourcePoint"/>
                        <mxPoint x="10" y="6" as="targetPoint"/>
                    </mxGeometry>
                </mxCell>
                <mxCell id="181" value="Login" style="rounded=1;whiteSpace=wrap;html=1;arcSize=50;strokeColor=none;strokeWidth=1;fillColor=#6C767D;fontColor=#FFFFFF;whiteSpace=wrap;align=center;verticalAlign=middle;spacingLeft=0;fontStyle=1;fontSize=14;spacing=10;shadow=0;glass=0;" vertex="1" parent="1">
                    <mxGeometry x="10" y="123.5" width="90" height="23.5" as="geometry"/>
                </mxCell>
                <mxCell id="182" value="Add" style="rounded=1;whiteSpace=wrap;html=1;arcSize=50;strokeColor=none;strokeWidth=1;fillColor=#6C767D;fontColor=#FFFFFF;whiteSpace=wrap;align=center;verticalAlign=middle;spacingLeft=0;fontStyle=1;fontSize=14;spacing=10;shadow=0;glass=0;" vertex="1" parent="1">
                    <mxGeometry x="897" y="-491.5" width="90" height="23.5" as="geometry"/>
                </mxCell>
                <mxCell id="183" value="" style="group" vertex="1" connectable="0" parent="1">
                    <mxGeometry x="1042" y="-444" width="40" height="80" as="geometry"/>
                </mxCell>
                <mxCell id="119" value="" style="group" vertex="1" connectable="0" parent="183">
                    <mxGeometry width="40" height="20" as="geometry"/>
                </mxCell>
                <mxCell id="112" value="" style="shape=waypoint;sketch=0;fillStyle=solid;size=6;pointerEvents=1;points=[];fillColor=none;resizable=0;rotatable=0;perimeter=centerPerimeter;snapToPoint=1;rounded=1;shadow=0;glass=0;strokeColor=#FFFFFF;" vertex="1" parent="119">
                    <mxGeometry width="20" height="20" as="geometry"/>
                </mxCell>
                <mxCell id="113" value="" style="shape=waypoint;sketch=0;fillStyle=solid;size=6;pointerEvents=1;points=[];fillColor=none;resizable=0;rotatable=0;perimeter=centerPerimeter;snapToPoint=1;rounded=1;shadow=0;glass=0;strokeColor=#FFFFFF;" vertex="1" parent="119">
                    <mxGeometry x="10" width="20" height="20" as="geometry"/>
                </mxCell>
                <mxCell id="114" value="" style="shape=waypoint;sketch=0;fillStyle=solid;size=6;pointerEvents=1;points=[];fillColor=none;resizable=0;rotatable=0;perimeter=centerPerimeter;snapToPoint=1;rounded=1;shadow=0;glass=0;strokeColor=#FFFFFF;" vertex="1" parent="119">
                    <mxGeometry x="20" width="20" height="20" as="geometry"/>
                </mxCell>
                <mxCell id="120" value="" style="group" vertex="1" connectable="0" parent="183">
                    <mxGeometry y="30" width="40" height="20" as="geometry"/>
                </mxCell>
                <mxCell id="121" value="" style="shape=waypoint;sketch=0;fillStyle=solid;size=6;pointerEvents=1;points=[];fillColor=none;resizable=0;rotatable=0;perimeter=centerPerimeter;snapToPoint=1;rounded=1;shadow=0;glass=0;strokeColor=#FFFFFF;" vertex="1" parent="120">
                    <mxGeometry width="20" height="20" as="geometry"/>
                </mxCell>
                <mxCell id="122" value="" style="shape=waypoint;sketch=0;fillStyle=solid;size=6;pointerEvents=1;points=[];fillColor=none;resizable=0;rotatable=0;perimeter=centerPerimeter;snapToPoint=1;rounded=1;shadow=0;glass=0;strokeColor=#FFFFFF;" vertex="1" parent="120">
                    <mxGeometry x="10" width="20" height="20" as="geometry"/>
                </mxCell>
                <mxCell id="123" value="" style="shape=waypoint;sketch=0;fillStyle=solid;size=6;pointerEvents=1;points=[];fillColor=none;resizable=0;rotatable=0;perimeter=centerPerimeter;snapToPoint=1;rounded=1;shadow=0;glass=0;strokeColor=#FFFFFF;" vertex="1" parent="120">
                    <mxGeometry x="20" width="20" height="20" as="geometry"/>
                </mxCell>
                <mxCell id="124" value="" style="group" vertex="1" connectable="0" parent="183">
                    <mxGeometry y="60" width="40" height="20" as="geometry"/>
                </mxCell>
                <mxCell id="125" value="" style="shape=waypoint;sketch=0;fillStyle=solid;size=6;pointerEvents=1;points=[];fillColor=none;resizable=0;rotatable=0;perimeter=centerPerimeter;snapToPoint=1;rounded=1;shadow=0;glass=0;strokeColor=#FFFFFF;" vertex="1" parent="124">
                    <mxGeometry width="20" height="20" as="geometry"/>
                </mxCell>
                <mxCell id="126" value="" style="shape=waypoint;sketch=0;fillStyle=solid;size=6;pointerEvents=1;points=[];fillColor=none;resizable=0;rotatable=0;perimeter=centerPerimeter;snapToPoint=1;rounded=1;shadow=0;glass=0;strokeColor=#FFFFFF;" vertex="1" parent="124">
                    <mxGeometry x="10" width="20" height="20" as="geometry"/>
                </mxCell>
                <mxCell id="127" value="" style="shape=waypoint;sketch=0;fillStyle=solid;size=6;pointerEvents=1;points=[];fillColor=none;resizable=0;rotatable=0;perimeter=centerPerimeter;snapToPoint=1;rounded=1;shadow=0;glass=0;strokeColor=#FFFFFF;" vertex="1" parent="124">
                    <mxGeometry x="20" width="20" height="20" as="geometry"/>
                </mxCell>
                <mxCell id="184" value="" style="shape=table;startSize=0;container=1;collapsible=0;childLayout=tableLayout;fixedRows=1;rowLines=0;fontStyle=1;rounded=1;shadow=0;glass=0;strokeColor=#FFFFFF;arcSize=0;" vertex="1" parent="1">
                    <mxGeometry x="167" y="1070" width="195" height="90" as="geometry"/>
                </mxCell>
                <mxCell id="185" value="" style="shape=tableRow;horizontal=0;startSize=0;swimlaneHead=0;swimlaneBody=0;top=0;left=0;bottom=0;right=0;collapsible=0;dropTarget=0;fillColor=none;points=[[0,0.5],[1,0.5]];portConstraint=eastwest;rounded=1;shadow=0;glass=0;strokeColor=#FFFFFF;" vertex="1" parent="184">
                    <mxGeometry width="195" height="30" as="geometry"/>
                </mxCell>
                <mxCell id="186" value="1" style="shape=partialRectangle;html=1;whiteSpace=wrap;connectable=0;fillColor=none;top=0;left=0;bottom=0;right=0;overflow=hidden;pointerEvents=1;rounded=1;shadow=0;glass=0;strokeColor=#FFFFFF;" vertex="1" parent="185">
                    <mxGeometry width="43" height="30" as="geometry">
                        <mxRectangle width="43" height="30" as="alternateBounds"/>
                    </mxGeometry>
                </mxCell>
                <mxCell id="187" value="User 1" style="shape=partialRectangle;html=1;whiteSpace=wrap;connectable=0;fillColor=none;top=0;left=0;bottom=0;right=0;align=left;spacingLeft=6;overflow=hidden;rounded=1;shadow=0;glass=0;strokeColor=#FFFFFF;" vertex="1" parent="185">
                    <mxGeometry x="43" width="152" height="30" as="geometry">
                        <mxRectangle width="152" height="30" as="alternateBounds"/>
                    </mxGeometry>
                </mxCell>
                <mxCell id="188" value="" style="shape=tableRow;horizontal=0;startSize=0;swimlaneHead=0;swimlaneBody=0;top=0;left=0;bottom=0;right=0;collapsible=0;dropTarget=0;fillColor=none;points=[[0,0.5],[1,0.5]];portConstraint=eastwest;rounded=1;shadow=0;glass=0;strokeColor=#FFFFFF;" vertex="1" parent="184">
                    <mxGeometry y="30" width="195" height="30" as="geometry"/>
                </mxCell>
                <mxCell id="189" value="2" style="shape=partialRectangle;html=1;whiteSpace=wrap;connectable=0;fillColor=none;top=0;left=0;bottom=0;right=0;overflow=hidden;rounded=1;shadow=0;glass=0;strokeColor=#FFFFFF;" vertex="1" parent="188">
                    <mxGeometry width="43" height="30" as="geometry">
                        <mxRectangle width="43" height="30" as="alternateBounds"/>
                    </mxGeometry>
                </mxCell>
                <mxCell id="190" value="User 2" style="shape=partialRectangle;html=1;whiteSpace=wrap;connectable=0;fillColor=none;top=0;left=0;bottom=0;right=0;align=left;spacingLeft=6;overflow=hidden;rounded=1;shadow=0;glass=0;strokeColor=#FFFFFF;" vertex="1" parent="188">
                    <mxGeometry x="43" width="152" height="30" as="geometry">
                        <mxRectangle width="152" height="30" as="alternateBounds"/>
                    </mxGeometry>
                </mxCell>
                <mxCell id="191" value="" style="shape=tableRow;horizontal=0;startSize=0;swimlaneHead=0;swimlaneBody=0;top=0;left=0;bottom=0;right=0;collapsible=0;dropTarget=0;fillColor=none;points=[[0,0.5],[1,0.5]];portConstraint=eastwest;rounded=1;shadow=0;glass=0;strokeColor=#FFFFFF;" vertex="1" parent="184">
                    <mxGeometry y="60" width="195" height="30" as="geometry"/>
                </mxCell>
                <mxCell id="192" value="3" style="shape=partialRectangle;html=1;whiteSpace=wrap;connectable=0;fillColor=none;top=0;left=0;bottom=0;right=0;overflow=hidden;rounded=1;shadow=0;glass=0;strokeColor=#FFFFFF;" vertex="1" parent="191">
                    <mxGeometry width="43" height="30" as="geometry">
                        <mxRectangle width="43" height="30" as="alternateBounds"/>
                    </mxGeometry>
                </mxCell>
                <mxCell id="193" value="User 3" style="shape=partialRectangle;html=1;whiteSpace=wrap;connectable=0;fillColor=none;top=0;left=0;bottom=0;right=0;align=left;spacingLeft=6;overflow=hidden;rounded=1;shadow=0;glass=0;strokeColor=#FFFFFF;" vertex="1" parent="191">
                    <mxGeometry x="43" width="152" height="30" as="geometry">
                        <mxRectangle width="152" height="30" as="alternateBounds"/>
                    </mxGeometry>
                </mxCell>
                <mxCell id="194" value="" style="endArrow=none;html=1;entryX=0.996;entryY=0.024;entryDx=0;entryDy=0;entryPerimeter=0;" edge="1" parent="1" target="188">
                    <mxGeometry width="50" height="50" relative="1" as="geometry">
                        <mxPoint x="167" y="1100" as="sourcePoint"/>
                        <mxPoint x="307" y="1090" as="targetPoint"/>
                    </mxGeometry>
                </mxCell>
                <mxCell id="195" value="" style="endArrow=none;html=1;entryX=0.988;entryY=0.019;entryDx=0;entryDy=0;entryPerimeter=0;" edge="1" parent="1" target="191">
                    <mxGeometry width="50" height="50" relative="1" as="geometry">
                        <mxPoint x="167" y="1130" as="sourcePoint"/>
                        <mxPoint x="346.28" y="1130.72" as="targetPoint"/>
                    </mxGeometry>
                </mxCell>
                <mxCell id="196" value="" style="group" vertex="1" connectable="0" parent="1">
                    <mxGeometry x="314" y="1076" width="40" height="80" as="geometry"/>
                </mxCell>
                <mxCell id="197" value="" style="group" vertex="1" connectable="0" parent="196">
                    <mxGeometry width="40" height="20" as="geometry"/>
                </mxCell>
                <mxCell id="198" value="" style="shape=waypoint;sketch=0;fillStyle=solid;size=6;pointerEvents=1;points=[];fillColor=none;resizable=0;rotatable=0;perimeter=centerPerimeter;snapToPoint=1;rounded=1;shadow=0;glass=0;strokeColor=#FFFFFF;" vertex="1" parent="197">
                    <mxGeometry width="20" height="20" as="geometry"/>
                </mxCell>
                <mxCell id="199" value="" style="shape=waypoint;sketch=0;fillStyle=solid;size=6;pointerEvents=1;points=[];fillColor=none;resizable=0;rotatable=0;perimeter=centerPerimeter;snapToPoint=1;rounded=1;shadow=0;glass=0;strokeColor=#FFFFFF;" vertex="1" parent="197">
                    <mxGeometry x="10" width="20" height="20" as="geometry"/>
                </mxCell>
                <mxCell id="200" value="" style="shape=waypoint;sketch=0;fillStyle=solid;size=6;pointerEvents=1;points=[];fillColor=none;resizable=0;rotatable=0;perimeter=centerPerimeter;snapToPoint=1;rounded=1;shadow=0;glass=0;strokeColor=#FFFFFF;" vertex="1" parent="197">
                    <mxGeometry x="20" width="20" height="20" as="geometry"/>
                </mxCell>
                <mxCell id="201" value="" style="group" vertex="1" connectable="0" parent="196">
                    <mxGeometry y="30" width="40" height="20" as="geometry"/>
                </mxCell>
                <mxCell id="202" value="" style="shape=waypoint;sketch=0;fillStyle=solid;size=6;pointerEvents=1;points=[];fillColor=none;resizable=0;rotatable=0;perimeter=centerPerimeter;snapToPoint=1;rounded=1;shadow=0;glass=0;strokeColor=#FFFFFF;" vertex="1" parent="201">
                    <mxGeometry width="20" height="20" as="geometry"/>
                </mxCell>
                <mxCell id="203" value="" style="shape=waypoint;sketch=0;fillStyle=solid;size=6;pointerEvents=1;points=[];fillColor=none;resizable=0;rotatable=0;perimeter=centerPerimeter;snapToPoint=1;rounded=1;shadow=0;glass=0;strokeColor=#FFFFFF;" vertex="1" parent="201">
                    <mxGeometry x="10" width="20" height="20" as="geometry"/>
                </mxCell>
                <mxCell id="204" value="" style="shape=waypoint;sketch=0;fillStyle=solid;size=6;pointerEvents=1;points=[];fillColor=none;resizable=0;rotatable=0;perimeter=centerPerimeter;snapToPoint=1;rounded=1;shadow=0;glass=0;strokeColor=#FFFFFF;" vertex="1" parent="201">
                    <mxGeometry x="20" width="20" height="20" as="geometry"/>
                </mxCell>
                <mxCell id="205" value="" style="group" vertex="1" connectable="0" parent="196">
                    <mxGeometry y="60" width="40" height="20" as="geometry"/>
                </mxCell>
                <mxCell id="206" value="" style="shape=waypoint;sketch=0;fillStyle=solid;size=6;pointerEvents=1;points=[];fillColor=none;resizable=0;rotatable=0;perimeter=centerPerimeter;snapToPoint=1;rounded=1;shadow=0;glass=0;strokeColor=#FFFFFF;" vertex="1" parent="205">
                    <mxGeometry width="20" height="20" as="geometry"/>
                </mxCell>
                <mxCell id="207" value="" style="shape=waypoint;sketch=0;fillStyle=solid;size=6;pointerEvents=1;points=[];fillColor=none;resizable=0;rotatable=0;perimeter=centerPerimeter;snapToPoint=1;rounded=1;shadow=0;glass=0;strokeColor=#FFFFFF;" vertex="1" parent="205">
                    <mxGeometry x="10" width="20" height="20" as="geometry"/>
                </mxCell>
                <mxCell id="208" value="" style="shape=waypoint;sketch=0;fillStyle=solid;size=6;pointerEvents=1;points=[];fillColor=none;resizable=0;rotatable=0;perimeter=centerPerimeter;snapToPoint=1;rounded=1;shadow=0;glass=0;strokeColor=#FFFFFF;" vertex="1" parent="205">
                    <mxGeometry x="20" width="20" height="20" as="geometry"/>
                </mxCell>
                <mxCell id="209" value="&lt;span style=&quot;white-space: pre;&quot;&gt;&#9;&lt;/span&gt;MyStore / Admin" style="rounded=0;whiteSpace=wrap;html=1;align=left;verticalAlign=top;" vertex="1" parent="1">
                    <mxGeometry x="-150" y="-572" width="230" height="330" as="geometry"/>
                </mxCell>
                <mxCell id="210" value="" style="endArrow=none;html=1;exitX=0.002;exitY=0.09;exitDx=0;exitDy=0;exitPerimeter=0;" edge="1" parent="1">
                    <mxGeometry width="50" height="50" relative="1" as="geometry">
                        <mxPoint x="-149.53999999999996" y="-546.3" as="sourcePoint"/>
                        <mxPoint x="80" y="-546" as="targetPoint"/>
                    </mxGeometry>
                </mxCell>
                <mxCell id="211" value="" style="group" vertex="1" connectable="0" parent="1">
                    <mxGeometry x="-142.00000000000003" y="-562" width="10.000000000000028" height="6" as="geometry"/>
                </mxCell>
                <mxCell id="212" value="" style="endArrow=none;html=1;" edge="1" parent="211">
                    <mxGeometry width="50" height="50" relative="1" as="geometry">
                        <mxPoint x="2.842170943040401e-14" as="sourcePoint"/>
                        <mxPoint x="10.000000000000028" as="targetPoint"/>
                    </mxGeometry>
                </mxCell>
                <mxCell id="213" value="" style="endArrow=none;html=1;" edge="1" parent="211">
                    <mxGeometry width="50" height="50" relative="1" as="geometry">
                        <mxPoint y="3" as="sourcePoint"/>
                        <mxPoint x="10" y="3" as="targetPoint"/>
                    </mxGeometry>
                </mxCell>
                <mxCell id="214" value="" style="endArrow=none;html=1;" edge="1" parent="211">
                    <mxGeometry width="50" height="50" relative="1" as="geometry">
                        <mxPoint y="6" as="sourcePoint"/>
                        <mxPoint x="10" y="6" as="targetPoint"/>
                    </mxGeometry>
                </mxCell>
                <mxCell id="215" value="" style="group" vertex="1" connectable="0" parent="1">
                    <mxGeometry x="-122" y="-512" width="50" height="61" as="geometry"/>
                </mxCell>
                <mxCell id="220" value="" style="group;aspect=fixed;" vertex="1" connectable="0" parent="1">
                    <mxGeometry x="-10" y="-466" width="50" height="44.44" as="geometry"/>
                </mxCell>
                <mxCell id="221" value="" style="rounded=0;whiteSpace=wrap;html=1;shadow=0;glass=0;" vertex="1" parent="220">
                    <mxGeometry y="11.110000000000046" width="38.888888888888886" height="33.32999999999995" as="geometry"/>
                </mxCell>
                <mxCell id="222" value="" style="endArrow=none;html=1;entryX=0;entryY=0;entryDx=0;entryDy=0;exitX=0;exitY=0;exitDx=0;exitDy=0;" edge="1" parent="220" source="221">
                    <mxGeometry width="50" height="50" relative="1" as="geometry">
                        <mxPoint x="-27.777777777777782" y="27.77500000000002" as="sourcePoint"/>
                        <mxPoint x="11.111111111111175" y="6.31530383543576e-14" as="targetPoint"/>
                    </mxGeometry>
                </mxCell>
                <mxCell id="223" value="" style="endArrow=none;html=1;entryX=0;entryY=0;entryDx=0;entryDy=0;exitX=0;exitY=0;exitDx=0;exitDy=0;" edge="1" parent="220">
                    <mxGeometry width="50" height="50" relative="1" as="geometry">
                        <mxPoint x="38.888888888888886" y="44.439999999999934" as="sourcePoint"/>
                        <mxPoint x="50" y="33.32999999999995" as="targetPoint"/>
                    </mxGeometry>
                </mxCell>
                <mxCell id="224" value="" style="endArrow=none;html=1;entryX=0;entryY=0;entryDx=0;entryDy=0;exitX=0;exitY=0;exitDx=0;exitDy=0;" edge="1" parent="220">
                    <mxGeometry width="50" height="50" relative="1" as="geometry">
                        <mxPoint x="38.888888888888886" y="11.110000000000046" as="sourcePoint"/>
                        <mxPoint x="50" as="targetPoint"/>
                    </mxGeometry>
                </mxCell>
                <mxCell id="225" value="" style="endArrow=none;html=1;" edge="1" parent="220">
                    <mxGeometry width="50" height="50" relative="1" as="geometry">
                        <mxPoint x="11.11111111111111" y="6.31530383543576e-14" as="sourcePoint"/>
                        <mxPoint x="50" y="6.31530383543576e-14" as="targetPoint"/>
                    </mxGeometry>
                </mxCell>
                <mxCell id="226" value="" style="endArrow=none;html=1;" edge="1" parent="220">
                    <mxGeometry width="50" height="50" relative="1" as="geometry">
                        <mxPoint x="50" y="6.31530383543576e-14" as="sourcePoint"/>
                        <mxPoint x="50" y="33.33000000000001" as="targetPoint"/>
                    </mxGeometry>
                </mxCell>
                <mxCell id="227" value="Products" style="text;html=1;strokeColor=none;fillColor=none;align=center;verticalAlign=middle;whiteSpace=wrap;rounded=0;shadow=0;glass=0;" vertex="1" parent="1">
                    <mxGeometry x="-16" y="-419" width="60" height="22" as="geometry"/>
                </mxCell>
                <mxCell id="228" value="" style="rounded=0;whiteSpace=wrap;html=1;shadow=0;glass=0;strokeColor=#FFFFFF;fontColor=#000000;fillColor=#18141D;" vertex="1" parent="1">
                    <mxGeometry x="-150" y="-546" width="160" height="304" as="geometry"/>
                </mxCell>
                <mxCell id="230" value="" style="endArrow=none;html=1;exitX=0.002;exitY=0.09;exitDx=0;exitDy=0;exitPerimeter=0;entryX=0.992;entryY=0.063;entryDx=0;entryDy=0;entryPerimeter=0;" edge="1" parent="1">
                    <mxGeometry width="50" height="50" relative="1" as="geometry">
                        <mxPoint x="-149.53999999999996" y="-522.2999999999998" as="sourcePoint"/>
                        <mxPoint x="8.720000000000027" y="-522.848" as="targetPoint"/>
                    </mxGeometry>
                </mxCell>
                <mxCell id="231" value="Products" style="text;html=1;strokeColor=none;fillColor=none;align=left;verticalAlign=middle;whiteSpace=wrap;rounded=0;shadow=0;glass=0;" vertex="1" parent="1">
                    <mxGeometry x="-148" y="-545" width="60" height="22" as="geometry"/>
                </mxCell>
                <mxCell id="233" value="Users" style="text;html=1;strokeColor=none;fillColor=none;align=left;verticalAlign=middle;whiteSpace=wrap;rounded=0;shadow=0;glass=0;" vertex="1" parent="1">
                    <mxGeometry x="-148" y="-522" width="60" height="22" as="geometry"/>
                </mxCell>
                <mxCell id="234" value="" style="endArrow=none;html=1;exitX=0.002;exitY=0.09;exitDx=0;exitDy=0;exitPerimeter=0;entryX=0.992;entryY=0.063;entryDx=0;entryDy=0;entryPerimeter=0;" edge="1" parent="1">
                    <mxGeometry width="50" height="50" relative="1" as="geometry">
                        <mxPoint x="-149.53999999999996" y="-499.29999999999984" as="sourcePoint"/>
                        <mxPoint x="8.720000000000027" y="-499.84799999999996" as="targetPoint"/>
                    </mxGeometry>
                </mxCell>
                <mxCell id="236" value="Sells" style="text;html=1;strokeColor=none;fillColor=none;align=left;verticalAlign=middle;whiteSpace=wrap;rounded=0;shadow=0;glass=0;" vertex="1" parent="1">
                    <mxGeometry x="-148" y="-498" width="60" height="22" as="geometry"/>
                </mxCell>
                <mxCell id="237" value="" style="endArrow=none;html=1;exitX=0.002;exitY=0.09;exitDx=0;exitDy=0;exitPerimeter=0;entryX=0.992;entryY=0.063;entryDx=0;entryDy=0;entryPerimeter=0;" edge="1" parent="1">
                    <mxGeometry width="50" height="50" relative="1" as="geometry">
                        <mxPoint x="-149.53999999999996" y="-476.29999999999984" as="sourcePoint"/>
                        <mxPoint x="8.720000000000027" y="-476.84799999999996" as="targetPoint"/>
                    </mxGeometry>
                </mxCell>
                <mxCell id="238" value="" style="group" vertex="1" connectable="0" parent="1">
                    <mxGeometry x="234" y="550" width="60" height="69" as="geometry"/>
                </mxCell>
                <mxCell id="68" value="" style="group;aspect=fixed;" vertex="1" connectable="0" parent="238">
                    <mxGeometry x="6" width="50" height="44.44" as="geometry"/>
                </mxCell>
                <mxCell id="61" value="" style="rounded=0;whiteSpace=wrap;html=1;shadow=0;glass=0;" vertex="1" parent="68">
                    <mxGeometry y="11.110000000000046" width="38.888888888888886" height="33.32999999999995" as="geometry"/>
                </mxCell>
                <mxCell id="62" value="" style="endArrow=none;html=1;entryX=0;entryY=0;entryDx=0;entryDy=0;exitX=0;exitY=0;exitDx=0;exitDy=0;" edge="1" parent="68" source="61">
                    <mxGeometry width="50" height="50" relative="1" as="geometry">
                        <mxPoint x="-27.777777777777782" y="27.77500000000002" as="sourcePoint"/>
                        <mxPoint x="11.111111111111175" y="6.31530383543576e-14" as="targetPoint"/>
                    </mxGeometry>
                </mxCell>
                <mxCell id="63" value="" style="endArrow=none;html=1;entryX=0;entryY=0;entryDx=0;entryDy=0;exitX=0;exitY=0;exitDx=0;exitDy=0;" edge="1" parent="68">
                    <mxGeometry width="50" height="50" relative="1" as="geometry">
                        <mxPoint x="38.888888888888886" y="44.439999999999934" as="sourcePoint"/>
                        <mxPoint x="50" y="33.32999999999995" as="targetPoint"/>
                    </mxGeometry>
                </mxCell>
                <mxCell id="64" value="" style="endArrow=none;html=1;entryX=0;entryY=0;entryDx=0;entryDy=0;exitX=0;exitY=0;exitDx=0;exitDy=0;" edge="1" parent="68">
                    <mxGeometry width="50" height="50" relative="1" as="geometry">
                        <mxPoint x="38.888888888888886" y="11.110000000000046" as="sourcePoint"/>
                        <mxPoint x="50" as="targetPoint"/>
                    </mxGeometry>
                </mxCell>
                <mxCell id="66" value="" style="endArrow=none;html=1;" edge="1" parent="68">
                    <mxGeometry width="50" height="50" relative="1" as="geometry">
                        <mxPoint x="11.11111111111111" y="6.31530383543576e-14" as="sourcePoint"/>
                        <mxPoint x="50" y="6.31530383543576e-14" as="targetPoint"/>
                    </mxGeometry>
                </mxCell>
                <mxCell id="67" value="" style="endArrow=none;html=1;" edge="1" parent="68">
                    <mxGeometry width="50" height="50" relative="1" as="geometry">
                        <mxPoint x="50" y="6.31530383543576e-14" as="sourcePoint"/>
                        <mxPoint x="50" y="33.33000000000001" as="targetPoint"/>
                    </mxGeometry>
                </mxCell>
                <mxCell id="70" value="Products" style="text;html=1;strokeColor=none;fillColor=none;align=center;verticalAlign=middle;whiteSpace=wrap;rounded=0;shadow=0;glass=0;" vertex="1" parent="238">
                    <mxGeometry y="47" width="60" height="22" as="geometry"/>
                </mxCell>
                <mxCell id="239" value="" style="group" vertex="1" connectable="0" parent="1">
                    <mxGeometry x="114" y="550" width="60" height="69" as="geometry"/>
                </mxCell>
                <mxCell id="240" value="" style="group;aspect=fixed;" vertex="1" connectable="0" parent="239">
                    <mxGeometry x="6" width="50" height="44.44" as="geometry"/>
                </mxCell>
                <mxCell id="241" value="" style="rounded=0;whiteSpace=wrap;html=1;shadow=0;glass=0;" vertex="1" parent="240">
                    <mxGeometry y="11.110000000000046" width="38.888888888888886" height="33.32999999999995" as="geometry"/>
                </mxCell>
                <mxCell id="242" value="" style="endArrow=none;html=1;entryX=0;entryY=0;entryDx=0;entryDy=0;exitX=0;exitY=0;exitDx=0;exitDy=0;" edge="1" parent="240" source="241">
                    <mxGeometry width="50" height="50" relative="1" as="geometry">
                        <mxPoint x="-27.777777777777782" y="27.77500000000002" as="sourcePoint"/>
                        <mxPoint x="11.111111111111175" y="6.31530383543576e-14" as="targetPoint"/>
                    </mxGeometry>
                </mxCell>
                <mxCell id="243" value="" style="endArrow=none;html=1;entryX=0;entryY=0;entryDx=0;entryDy=0;exitX=0;exitY=0;exitDx=0;exitDy=0;" edge="1" parent="240">
                    <mxGeometry width="50" height="50" relative="1" as="geometry">
                        <mxPoint x="38.888888888888886" y="44.439999999999934" as="sourcePoint"/>
                        <mxPoint x="50" y="33.32999999999995" as="targetPoint"/>
                    </mxGeometry>
                </mxCell>
                <mxCell id="244" value="" style="endArrow=none;html=1;entryX=0;entryY=0;entryDx=0;entryDy=0;exitX=0;exitY=0;exitDx=0;exitDy=0;" edge="1" parent="240">
                    <mxGeometry width="50" height="50" relative="1" as="geometry">
                        <mxPoint x="38.888888888888886" y="11.110000000000046" as="sourcePoint"/>
                        <mxPoint x="50" as="targetPoint"/>
                    </mxGeometry>
                </mxCell>
                <mxCell id="245" value="" style="endArrow=none;html=1;" edge="1" parent="240">
                    <mxGeometry width="50" height="50" relative="1" as="geometry">
                        <mxPoint x="11.11111111111111" y="6.31530383543576e-14" as="sourcePoint"/>
                        <mxPoint x="50" y="6.31530383543576e-14" as="targetPoint"/>
                    </mxGeometry>
                </mxCell>
                <mxCell id="246" value="" style="endArrow=none;html=1;" edge="1" parent="240">
                    <mxGeometry width="50" height="50" relative="1" as="geometry">
                        <mxPoint x="50" y="6.31530383543576e-14" as="sourcePoint"/>
                        <mxPoint x="50" y="33.33000000000001" as="targetPoint"/>
                    </mxGeometry>
                </mxCell>
                <mxCell id="247" value="Sells" style="text;html=1;strokeColor=none;fillColor=none;align=center;verticalAlign=middle;whiteSpace=wrap;rounded=0;shadow=0;glass=0;" vertex="1" parent="239">
                    <mxGeometry y="47" width="60" height="22" as="geometry"/>
                </mxCell>
                <mxCell id="248" value="Admin Dashboard" style="text;html=1;strokeColor=none;fillColor=none;align=center;verticalAlign=middle;whiteSpace=wrap;rounded=0;shadow=0;glass=0;" vertex="1" parent="1">
                    <mxGeometry x="153.5" y="506" width="123" height="33" as="geometry"/>
                </mxCell>
                <mxCell id="250" value="&lt;span style=&quot;&quot;&gt;&#9;&lt;/span&gt;&lt;span style=&quot;&quot;&gt;&#9;&lt;/span&gt;&lt;span style=&quot;white-space: pre;&quot;&gt;&#9;&lt;/span&gt;MyStore / User / [Add | Update]" style="rounded=0;whiteSpace=wrap;html=1;align=left;verticalAlign=top;" vertex="1" parent="1">
                    <mxGeometry x="435" y="979" width="230" height="361" as="geometry"/>
                </mxCell>
                <mxCell id="251" value="" style="group" vertex="1" connectable="0" parent="1">
                    <mxGeometry x="443" y="989" width="10.000000000000028" height="6" as="geometry"/>
                </mxCell>
                <mxCell id="252" value="" style="endArrow=none;html=1;" edge="1" parent="251">
                    <mxGeometry width="50" height="50" relative="1" as="geometry">
                        <mxPoint x="2.842170943040401e-14" as="sourcePoint"/>
                        <mxPoint x="10.000000000000028" as="targetPoint"/>
                    </mxGeometry>
                </mxCell>
                <mxCell id="253" value="" style="endArrow=none;html=1;" edge="1" parent="251">
                    <mxGeometry width="50" height="50" relative="1" as="geometry">
                        <mxPoint y="3" as="sourcePoint"/>
                        <mxPoint x="10" y="3" as="targetPoint"/>
                    </mxGeometry>
                </mxCell>
                <mxCell id="254" value="" style="endArrow=none;html=1;" edge="1" parent="251">
                    <mxGeometry width="50" height="50" relative="1" as="geometry">
                        <mxPoint y="6" as="sourcePoint"/>
                        <mxPoint x="10" y="6" as="targetPoint"/>
                    </mxGeometry>
                </mxCell>
                <mxCell id="255" value="Name:" style="text;html=1;strokeColor=none;fillColor=none;align=left;verticalAlign=middle;whiteSpace=wrap;rounded=0;shadow=0;glass=0;" vertex="1" parent="1">
                    <mxGeometry x="439" y="1118.5" width="42" height="24" as="geometry"/>
                </mxCell>
                <mxCell id="256" value="" style="html=1;shadow=0;dashed=0;shape=mxgraph.bootstrap.rrect;rSize=5;strokeColor=#CED4DA;strokeWidth=1;fillColor=#E9ECEF;fontColor=#505050;whiteSpace=wrap;align=left;verticalAlign=middle;spacingLeft=10;fontSize=14;rounded=1;glass=0;" vertex="1" parent="1">
                    <mxGeometry x="480" y="1119.5" width="87" height="25" as="geometry"/>
                </mxCell>
                <mxCell id="263" value="" style="whiteSpace=wrap;html=1;aspect=fixed;rounded=0;shadow=0;glass=0;strokeColor=#FFFFFF;fontColor=#000000;fillColor=#18141D;" vertex="1" parent="1">
                    <mxGeometry x="1284.25" y="-276.5" width="106.5" height="106.5" as="geometry"/>
                </mxCell>
                <mxCell id="264" value="" style="endArrow=none;html=1;fontColor=#000000;entryX=1;entryY=0;entryDx=0;entryDy=0;" edge="1" parent="1" target="263">
                    <mxGeometry width="50" height="50" relative="1" as="geometry">
                        <mxPoint x="1293" y="-170" as="sourcePoint"/>
                        <mxPoint x="1343" y="-220" as="targetPoint"/>
                    </mxGeometry>
                </mxCell>
                <mxCell id="266" value="" style="endArrow=none;html=1;fontColor=#000000;entryX=1;entryY=1;entryDx=0;entryDy=0;exitX=0;exitY=0;exitDx=0;exitDy=0;" edge="1" parent="1" source="263" target="263">
                    <mxGeometry width="50" height="50" relative="1" as="geometry">
                        <mxPoint x="1303" y="-160" as="sourcePoint"/>
                        <mxPoint x="1410.75" y="-266.5" as="targetPoint"/>
                    </mxGeometry>
                </mxCell>
                <mxCell id="267" value="Add image" style="rounded=1;whiteSpace=wrap;html=1;arcSize=50;strokeColor=none;strokeWidth=1;fillColor=#6C767D;fontColor=#FFFFFF;whiteSpace=wrap;align=center;verticalAlign=middle;spacingLeft=0;fontStyle=1;fontSize=8;spacing=10;shadow=0;glass=0;" vertex="1" parent="1">
                    <mxGeometry x="1240" y="-310" width="62" height="20" as="geometry"/>
                </mxCell>
                <mxCell id="268" value="It works as a pile" style="shape=callout;whiteSpace=wrap;html=1;perimeter=calloutPerimeter;rounded=0;shadow=0;glass=0;strokeColor=#FFFFFF;fontSize=8;fontColor=#FFFFFF;fillColor=#18141D;position2=0;align=left;verticalAlign=top;" vertex="1" parent="1">
                    <mxGeometry x="1480" y="-430" width="120" height="62" as="geometry"/>
                </mxCell>
                <mxCell id="269" value="" style="endArrow=none;html=1;fontSize=8;fontColor=#000000;entryX=0;entryY=0;entryDx=0;entryDy=61.99999999999999;entryPerimeter=0;exitX=1;exitY=0.5;exitDx=0;exitDy=0;shadow=0;sketch=1;curveFitting=1;jiggle=2;" edge="1" parent="1" source="267" target="268">
                    <mxGeometry width="50" height="50" relative="1" as="geometry">
                        <mxPoint x="1210" y="-200" as="sourcePoint"/>
                        <mxPoint x="1550" y="-270" as="targetPoint"/>
                        <Array as="points">
                            <mxPoint x="1410" y="-320"/>
                        </Array>
                    </mxGeometry>
                </mxCell>
                <mxCell id="271" value="&lt;span style=&quot;white-space: pre;&quot;&gt;&#9;&lt;/span&gt;MyStore / Sells" style="rounded=0;whiteSpace=wrap;html=1;align=left;verticalAlign=top;" vertex="1" parent="1">
                    <mxGeometry x="-1040" y="-101" width="230" height="330" as="geometry"/>
                </mxCell>
                <mxCell id="272" value="" style="endArrow=none;html=1;exitX=0.002;exitY=0.09;exitDx=0;exitDy=0;exitPerimeter=0;" edge="1" parent="1">
                    <mxGeometry width="50" height="50" relative="1" as="geometry">
                        <mxPoint x="-1039.54" y="-75.29999999999995" as="sourcePoint"/>
                        <mxPoint x="-810" y="-75" as="targetPoint"/>
                    </mxGeometry>
                </mxCell>
                <mxCell id="273" value="" style="group" vertex="1" connectable="0" parent="1">
                    <mxGeometry x="-1032" y="-91" width="10.000000000000028" height="6" as="geometry"/>
                </mxCell>
                <mxCell id="274" value="" style="endArrow=none;html=1;" edge="1" parent="273">
                    <mxGeometry width="50" height="50" relative="1" as="geometry">
                        <mxPoint x="2.842170943040401e-14" as="sourcePoint"/>
                        <mxPoint x="10.000000000000028" as="targetPoint"/>
                    </mxGeometry>
                </mxCell>
                <mxCell id="275" value="" style="endArrow=none;html=1;" edge="1" parent="273">
                    <mxGeometry width="50" height="50" relative="1" as="geometry">
                        <mxPoint y="3" as="sourcePoint"/>
                        <mxPoint x="10" y="3" as="targetPoint"/>
                    </mxGeometry>
                </mxCell>
                <mxCell id="276" value="" style="endArrow=none;html=1;" edge="1" parent="273">
                    <mxGeometry width="50" height="50" relative="1" as="geometry">
                        <mxPoint y="6" as="sourcePoint"/>
                        <mxPoint x="10" y="6" as="targetPoint"/>
                    </mxGeometry>
                </mxCell>
                <mxCell id="277" value="" style="shape=table;startSize=0;container=1;collapsible=0;childLayout=tableLayout;fixedRows=1;rowLines=0;fontStyle=1;rounded=1;shadow=0;glass=0;strokeColor=#FFFFFF;arcSize=0;" vertex="1" parent="1">
                    <mxGeometry x="-1020" y="-1" width="195" height="90" as="geometry"/>
                </mxCell>
                <mxCell id="278" value="" style="shape=tableRow;horizontal=0;startSize=0;swimlaneHead=0;swimlaneBody=0;top=0;left=0;bottom=0;right=0;collapsible=0;dropTarget=0;fillColor=none;points=[[0,0.5],[1,0.5]];portConstraint=eastwest;rounded=1;shadow=0;glass=0;strokeColor=#FFFFFF;" vertex="1" parent="277">
                    <mxGeometry width="195" height="30" as="geometry"/>
                </mxCell>
                <mxCell id="279" value="1" style="shape=partialRectangle;html=1;whiteSpace=wrap;connectable=0;fillColor=none;top=0;left=0;bottom=0;right=0;overflow=hidden;pointerEvents=1;rounded=1;shadow=0;glass=0;strokeColor=#FFFFFF;" vertex="1" parent="278">
                    <mxGeometry width="43" height="30" as="geometry">
                        <mxRectangle width="43" height="30" as="alternateBounds"/>
                    </mxGeometry>
                </mxCell>
                <mxCell id="280" value="Sell 1" style="shape=partialRectangle;html=1;whiteSpace=wrap;connectable=0;fillColor=none;top=0;left=0;bottom=0;right=0;align=left;spacingLeft=6;overflow=hidden;rounded=1;shadow=0;glass=0;strokeColor=#FFFFFF;" vertex="1" parent="278">
                    <mxGeometry x="43" width="152" height="30" as="geometry">
                        <mxRectangle width="152" height="30" as="alternateBounds"/>
                    </mxGeometry>
                </mxCell>
                <mxCell id="281" value="" style="shape=tableRow;horizontal=0;startSize=0;swimlaneHead=0;swimlaneBody=0;top=0;left=0;bottom=0;right=0;collapsible=0;dropTarget=0;fillColor=none;points=[[0,0.5],[1,0.5]];portConstraint=eastwest;rounded=1;shadow=0;glass=0;strokeColor=#FFFFFF;" vertex="1" parent="277">
                    <mxGeometry y="30" width="195" height="30" as="geometry"/>
                </mxCell>
                <mxCell id="282" value="2" style="shape=partialRectangle;html=1;whiteSpace=wrap;connectable=0;fillColor=none;top=0;left=0;bottom=0;right=0;overflow=hidden;rounded=1;shadow=0;glass=0;strokeColor=#FFFFFF;" vertex="1" parent="281">
                    <mxGeometry width="43" height="30" as="geometry">
                        <mxRectangle width="43" height="30" as="alternateBounds"/>
                    </mxGeometry>
                </mxCell>
                <mxCell id="283" value="Sell 2" style="shape=partialRectangle;html=1;whiteSpace=wrap;connectable=0;fillColor=none;top=0;left=0;bottom=0;right=0;align=left;spacingLeft=6;overflow=hidden;rounded=1;shadow=0;glass=0;strokeColor=#FFFFFF;" vertex="1" parent="281">
                    <mxGeometry x="43" width="152" height="30" as="geometry">
                        <mxRectangle width="152" height="30" as="alternateBounds"/>
                    </mxGeometry>
                </mxCell>
                <mxCell id="284" value="" style="shape=tableRow;horizontal=0;startSize=0;swimlaneHead=0;swimlaneBody=0;top=0;left=0;bottom=0;right=0;collapsible=0;dropTarget=0;fillColor=none;points=[[0,0.5],[1,0.5]];portConstraint=eastwest;rounded=1;shadow=0;glass=0;strokeColor=#FFFFFF;" vertex="1" parent="277">
                    <mxGeometry y="60" width="195" height="30" as="geometry"/>
                </mxCell>
                <mxCell id="285" value="3" style="shape=partialRectangle;html=1;whiteSpace=wrap;connectable=0;fillColor=none;top=0;left=0;bottom=0;right=0;overflow=hidden;rounded=1;shadow=0;glass=0;strokeColor=#FFFFFF;" vertex="1" parent="284">
                    <mxGeometry width="43" height="30" as="geometry">
                        <mxRectangle width="43" height="30" as="alternateBounds"/>
                    </mxGeometry>
                </mxCell>
                <mxCell id="286" value="Sell 3" style="shape=partialRectangle;html=1;whiteSpace=wrap;connectable=0;fillColor=none;top=0;left=0;bottom=0;right=0;align=left;spacingLeft=6;overflow=hidden;rounded=1;shadow=0;glass=0;strokeColor=#FFFFFF;" vertex="1" parent="284">
                    <mxGeometry x="43" width="152" height="30" as="geometry">
                        <mxRectangle width="152" height="30" as="alternateBounds"/>
                    </mxGeometry>
                </mxCell>
                <mxCell id="287" value="" style="endArrow=none;html=1;entryX=0.996;entryY=0.024;entryDx=0;entryDy=0;entryPerimeter=0;" edge="1" parent="1" target="281">
                    <mxGeometry width="50" height="50" relative="1" as="geometry">
                        <mxPoint x="-1020" y="29" as="sourcePoint"/>
                        <mxPoint x="-880" y="19" as="targetPoint"/>
                    </mxGeometry>
                </mxCell>
                <mxCell id="288" value="" style="endArrow=none;html=1;entryX=0.988;entryY=0.019;entryDx=0;entryDy=0;entryPerimeter=0;" edge="1" parent="1" target="284">
                    <mxGeometry width="50" height="50" relative="1" as="geometry">
                        <mxPoint x="-1020" y="59" as="sourcePoint"/>
                        <mxPoint x="-840.72" y="59.72000000000003" as="targetPoint"/>
                    </mxGeometry>
                </mxCell>
                <mxCell id="289" value="" style="group" vertex="1" connectable="0" parent="1">
                    <mxGeometry x="-873" y="5" width="40" height="80" as="geometry"/>
                </mxCell>
                <mxCell id="290" value="" style="group" vertex="1" connectable="0" parent="289">
                    <mxGeometry width="40" height="20" as="geometry"/>
                </mxCell>
                <mxCell id="291" value="" style="shape=waypoint;sketch=0;fillStyle=solid;size=6;pointerEvents=1;points=[];fillColor=none;resizable=0;rotatable=0;perimeter=centerPerimeter;snapToPoint=1;rounded=1;shadow=0;glass=0;strokeColor=#FFFFFF;" vertex="1" parent="290">
                    <mxGeometry width="20" height="20" as="geometry"/>
                </mxCell>
                <mxCell id="292" value="" style="shape=waypoint;sketch=0;fillStyle=solid;size=6;pointerEvents=1;points=[];fillColor=none;resizable=0;rotatable=0;perimeter=centerPerimeter;snapToPoint=1;rounded=1;shadow=0;glass=0;strokeColor=#FFFFFF;" vertex="1" parent="290">
                    <mxGeometry x="10" width="20" height="20" as="geometry"/>
                </mxCell>
                <mxCell id="293" value="" style="shape=waypoint;sketch=0;fillStyle=solid;size=6;pointerEvents=1;points=[];fillColor=none;resizable=0;rotatable=0;perimeter=centerPerimeter;snapToPoint=1;rounded=1;shadow=0;glass=0;strokeColor=#FFFFFF;" vertex="1" parent="290">
                    <mxGeometry x="20" width="20" height="20" as="geometry"/>
                </mxCell>
                <mxCell id="294" value="" style="group" vertex="1" connectable="0" parent="289">
                    <mxGeometry y="30" width="40" height="20" as="geometry"/>
                </mxCell>
                <mxCell id="295" value="" style="shape=waypoint;sketch=0;fillStyle=solid;size=6;pointerEvents=1;points=[];fillColor=none;resizable=0;rotatable=0;perimeter=centerPerimeter;snapToPoint=1;rounded=1;shadow=0;glass=0;strokeColor=#FFFFFF;" vertex="1" parent="294">
                    <mxGeometry width="20" height="20" as="geometry"/>
                </mxCell>
                <mxCell id="296" value="" style="shape=waypoint;sketch=0;fillStyle=solid;size=6;pointerEvents=1;points=[];fillColor=none;resizable=0;rotatable=0;perimeter=centerPerimeter;snapToPoint=1;rounded=1;shadow=0;glass=0;strokeColor=#FFFFFF;" vertex="1" parent="294">
                    <mxGeometry x="10" width="20" height="20" as="geometry"/>
                </mxCell>
                <mxCell id="297" value="" style="shape=waypoint;sketch=0;fillStyle=solid;size=6;pointerEvents=1;points=[];fillColor=none;resizable=0;rotatable=0;perimeter=centerPerimeter;snapToPoint=1;rounded=1;shadow=0;glass=0;strokeColor=#FFFFFF;" vertex="1" parent="294">
                    <mxGeometry x="20" width="20" height="20" as="geometry"/>
                </mxCell>
                <mxCell id="298" value="" style="group" vertex="1" connectable="0" parent="289">
                    <mxGeometry y="60" width="40" height="20" as="geometry"/>
                </mxCell>
                <mxCell id="299" value="" style="shape=waypoint;sketch=0;fillStyle=solid;size=6;pointerEvents=1;points=[];fillColor=none;resizable=0;rotatable=0;perimeter=centerPerimeter;snapToPoint=1;rounded=1;shadow=0;glass=0;strokeColor=#FFFFFF;" vertex="1" parent="298">
                    <mxGeometry width="20" height="20" as="geometry"/>
                </mxCell>
                <mxCell id="300" value="" style="shape=waypoint;sketch=0;fillStyle=solid;size=6;pointerEvents=1;points=[];fillColor=none;resizable=0;rotatable=0;perimeter=centerPerimeter;snapToPoint=1;rounded=1;shadow=0;glass=0;strokeColor=#FFFFFF;" vertex="1" parent="298">
                    <mxGeometry x="10" width="20" height="20" as="geometry"/>
                </mxCell>
                <mxCell id="301" value="" style="shape=waypoint;sketch=0;fillStyle=solid;size=6;pointerEvents=1;points=[];fillColor=none;resizable=0;rotatable=0;perimeter=centerPerimeter;snapToPoint=1;rounded=1;shadow=0;glass=0;strokeColor=#FFFFFF;" vertex="1" parent="298">
                    <mxGeometry x="20" width="20" height="20" as="geometry"/>
                </mxCell>
                <mxCell id="302" value="&lt;span style=&quot;&quot;&gt;&#9;&lt;/span&gt;&lt;span style=&quot;white-space: pre;&quot;&gt;&#9;&lt;/span&gt;MyStore / Sells / [Add | Update]" style="rounded=0;whiteSpace=wrap;html=1;align=left;verticalAlign=top;" vertex="1" parent="1">
                    <mxGeometry x="-1400" y="-110" width="230" height="330" as="geometry"/>
                </mxCell>
                <mxCell id="303" value="" style="group" vertex="1" connectable="0" parent="1">
                    <mxGeometry x="-1392" y="-100" width="10.000000000000028" height="6" as="geometry"/>
                </mxCell>
                <mxCell id="304" value="" style="endArrow=none;html=1;" edge="1" parent="303">
                    <mxGeometry width="50" height="50" relative="1" as="geometry">
                        <mxPoint x="2.842170943040401e-14" as="sourcePoint"/>
                        <mxPoint x="10.000000000000028" as="targetPoint"/>
                    </mxGeometry>
                </mxCell>
                <mxCell id="305" value="" style="endArrow=none;html=1;" edge="1" parent="303">
                    <mxGeometry width="50" height="50" relative="1" as="geometry">
                        <mxPoint y="3" as="sourcePoint"/>
                        <mxPoint x="10" y="3" as="targetPoint"/>
                    </mxGeometry>
                </mxCell>
                <mxCell id="306" value="" style="endArrow=none;html=1;" edge="1" parent="303">
                    <mxGeometry width="50" height="50" relative="1" as="geometry">
                        <mxPoint y="6" as="sourcePoint"/>
                        <mxPoint x="10" y="6" as="targetPoint"/>
                    </mxGeometry>
                </mxCell>
                <mxCell id="307" value="Id:" style="text;html=1;strokeColor=none;fillColor=none;align=center;verticalAlign=middle;whiteSpace=wrap;rounded=0;shadow=0;glass=0;" vertex="1" parent="1">
                    <mxGeometry x="-1388" y="-21.5" width="32" height="24" as="geometry"/>
                </mxCell>
                <mxCell id="308" value="1" style="html=1;shadow=0;dashed=0;shape=mxgraph.bootstrap.rrect;rSize=5;strokeColor=#CED4DA;strokeWidth=1;fillColor=#E0E0E0;fontColor=#999999;whiteSpace=wrap;align=left;verticalAlign=middle;spacingLeft=10;fontSize=14;rounded=1;glass=0;" vertex="1" parent="1">
                    <mxGeometry x="-1342" y="-20.5" width="50" height="25" as="geometry"/>
                </mxCell>
                <mxCell id="315" value="" style="curved=1;endArrow=classic;html=1;shadow=0;sketch=1;fontSize=8;fontColor=#FFFFFF;fillColor=#e3c800;strokeColor=#B09500;strokeWidth=4;exitX=1.338;exitY=0.737;exitDx=0;exitDy=0;exitPerimeter=0;" edge="1" parent="1" source="114">
                    <mxGeometry width="50" height="50" relative="1" as="geometry">
                        <mxPoint x="1040" y="-430" as="sourcePoint"/>
                        <mxPoint x="1220" y="-530" as="targetPoint"/>
                        <Array as="points">
                            <mxPoint x="1160" y="-440"/>
                            <mxPoint x="1160" y="-530"/>
                        </Array>
                    </mxGeometry>
                </mxCell>
                <mxCell id="318" value="" style="endArrow=classic;startArrow=classic;html=1;shadow=0;sketch=1;strokeWidth=4;fontSize=8;fontColor=#FFFFFF;fillColor=#e3c800;strokeColor=#B09500;" edge="1" parent="1" source="200">
                    <mxGeometry width="50" height="50" relative="1" as="geometry">
                        <mxPoint x="346" y="1040" as="sourcePoint"/>
                        <mxPoint x="447" y="988" as="targetPoint"/>
                        <Array as="points">
                            <mxPoint x="407" y="950"/>
                        </Array>
                    </mxGeometry>
                </mxCell>
                <mxCell id="319" value="Lastname:" style="text;html=1;strokeColor=none;fillColor=none;align=left;verticalAlign=middle;whiteSpace=wrap;rounded=0;shadow=0;glass=0;" vertex="1" parent="1">
                    <mxGeometry x="439" y="1158.5" width="42" height="24" as="geometry"/>
                </mxCell>
                <mxCell id="320" value="" style="html=1;shadow=0;dashed=0;shape=mxgraph.bootstrap.rrect;rSize=5;strokeColor=#CED4DA;strokeWidth=1;fillColor=#E9ECEF;fontColor=#505050;whiteSpace=wrap;align=left;verticalAlign=middle;spacingLeft=10;fontSize=14;rounded=1;glass=0;" vertex="1" parent="1">
                    <mxGeometry x="507" y="1159.5" width="140" height="25" as="geometry"/>
                </mxCell>
                <mxCell id="321" value="Roles:" style="text;html=1;strokeColor=none;fillColor=none;align=left;verticalAlign=middle;whiteSpace=wrap;rounded=0;shadow=0;glass=0;" vertex="1" parent="1">
                    <mxGeometry x="439" y="1198.5" width="42" height="24" as="geometry"/>
                </mxCell>
                <mxCell id="323" value="Stocker" style="html=1;shadow=0;dashed=0;shape=mxgraph.bootstrap.checkbox2;labelPosition=right;verticalLabelPosition=middle;align=left;verticalAlign=middle;gradientColor=#DEDEDE;fillColor=#EDEDED;checked=1;spacing=5;checkedFill=#0085FC;checkedStroke=#ffffff;sketch=0;rounded=0;glass=0;strokeColor=#FFFFFF;fontSize=8;fontColor=#FFFFFF;" vertex="1" parent="1">
                    <mxGeometry x="499" y="1207" width="10" height="10" as="geometry"/>
                </mxCell>
                <mxCell id="324" value="Cashier" style="html=1;shadow=0;dashed=0;shape=mxgraph.bootstrap.checkbox2;labelPosition=right;verticalLabelPosition=middle;align=left;verticalAlign=middle;gradientColor=#DEDEDE;fillColor=#EDEDED;checked=0;spacing=5;fontColor=#FFFFFF;checkedFill=#0085FC;checkedStroke=#ffffff;sketch=0;rounded=0;glass=0;strokeColor=#FFFFFF;fontSize=8;" vertex="1" parent="1">
                    <mxGeometry x="499" y="1227" width="10" height="10" as="geometry"/>
                </mxCell>
                <mxCell id="327" value="Admin" style="html=1;shadow=0;dashed=0;shape=mxgraph.bootstrap.checkbox2;labelPosition=right;verticalLabelPosition=middle;align=left;verticalAlign=middle;gradientColor=#DEDEDE;fillColor=#EDEDED;checked=0;spacing=5;fontColor=#FFFFFF;checkedFill=#0085FC;checkedStroke=#ffffff;sketch=0;rounded=0;glass=0;strokeColor=#FFFFFF;fontSize=8;" vertex="1" parent="1">
                    <mxGeometry x="499" y="1247" width="10" height="10" as="geometry"/>
                </mxCell>
                <mxCell id="330" value="Admin" style="endArrow=classic;startArrow=none;html=1;shadow=0;sketch=1;strokeWidth=4;fontSize=13;fontColor=#FFFFFF;fillColor=#e3c800;strokeColor=#B09500;startFill=0;" edge="1" parent="1">
                    <mxGeometry width="50" height="50" relative="1" as="geometry">
                        <mxPoint x="70" y="250" as="sourcePoint"/>
                        <mxPoint x="150" y="450" as="targetPoint"/>
                        <Array as="points"/>
                    </mxGeometry>
                </mxCell>
                <mxCell id="332" value="Add" style="rounded=1;whiteSpace=wrap;html=1;arcSize=50;strokeColor=none;strokeWidth=1;fillColor=#6C767D;fontColor=#FFFFFF;whiteSpace=wrap;align=center;verticalAlign=middle;spacingLeft=0;fontStyle=1;fontSize=14;spacing=10;shadow=0;glass=0;" vertex="1" parent="1">
                    <mxGeometry x="167" y="1028.5" width="90" height="23.5" as="geometry"/>
                </mxCell>
                <mxCell id="333" value="Add" style="rounded=1;whiteSpace=wrap;html=1;arcSize=50;strokeColor=none;strokeWidth=1;fillColor=#6C767D;fontColor=#FFFFFF;whiteSpace=wrap;align=center;verticalAlign=middle;spacingLeft=0;fontStyle=1;fontSize=14;spacing=10;shadow=0;glass=0;" vertex="1" parent="1">
                    <mxGeometry x="-1020" y="-51.5" width="90" height="23.5" as="geometry"/>
                </mxCell>
                <mxCell id="334" value="Id:" style="text;html=1;strokeColor=none;fillColor=none;align=right;verticalAlign=middle;whiteSpace=wrap;rounded=0;shadow=0;glass=0;" vertex="1" parent="1">
                    <mxGeometry x="443" y="1077" width="32" height="24" as="geometry"/>
                </mxCell>
                <mxCell id="335" value="1" style="html=1;shadow=0;dashed=0;shape=mxgraph.bootstrap.rrect;rSize=5;strokeColor=#CED4DA;strokeWidth=1;fillColor=#E0E0E0;fontColor=#999999;whiteSpace=wrap;align=left;verticalAlign=middle;spacingLeft=10;fontSize=14;rounded=1;glass=0;" vertex="1" parent="1">
                    <mxGeometry x="489" y="1078" width="50" height="25" as="geometry"/>
                </mxCell>
                <mxCell id="336" value="Id:" style="text;html=1;strokeColor=none;fillColor=none;align=center;verticalAlign=middle;whiteSpace=wrap;rounded=0;shadow=0;glass=0;" vertex="1" parent="1">
                    <mxGeometry x="1240" y="-470" width="32" height="24" as="geometry"/>
                </mxCell>
                <mxCell id="337" value="1" style="html=1;shadow=0;dashed=0;shape=mxgraph.bootstrap.rrect;rSize=5;strokeColor=#CED4DA;strokeWidth=1;fillColor=#E0E0E0;fontColor=#999999;whiteSpace=wrap;align=left;verticalAlign=middle;spacingLeft=10;fontSize=14;rounded=1;glass=0;" vertex="1" parent="1">
                    <mxGeometry x="1276" y="-471" width="50" height="25" as="geometry"/>
                </mxCell>
                <mxCell id="339" value="&lt;span style=&quot;white-space: pre;&quot;&gt;&#9;&lt;/span&gt;MyStore / Stocker" style="rounded=0;whiteSpace=wrap;html=1;align=left;verticalAlign=top;" vertex="1" parent="1">
                    <mxGeometry x="510" y="-384" width="230" height="330" as="geometry"/>
                </mxCell>
                <mxCell id="340" value="" style="endArrow=none;html=1;exitX=0.002;exitY=0.09;exitDx=0;exitDy=0;exitPerimeter=0;" edge="1" parent="1">
                    <mxGeometry width="50" height="50" relative="1" as="geometry">
                        <mxPoint x="510.46000000000004" y="-358.2999999999997" as="sourcePoint"/>
                        <mxPoint x="740" y="-358" as="targetPoint"/>
                    </mxGeometry>
                </mxCell>
                <mxCell id="341" value="" style="group" vertex="1" connectable="0" parent="1">
                    <mxGeometry x="518" y="-374" width="10.000000000000028" height="6" as="geometry"/>
                </mxCell>
                <mxCell id="342" value="" style="endArrow=none;html=1;" edge="1" parent="341">
                    <mxGeometry width="50" height="50" relative="1" as="geometry">
                        <mxPoint x="2.842170943040401e-14" as="sourcePoint"/>
                        <mxPoint x="10.000000000000028" as="targetPoint"/>
                    </mxGeometry>
                </mxCell>
                <mxCell id="343" value="" style="endArrow=none;html=1;" edge="1" parent="341">
                    <mxGeometry width="50" height="50" relative="1" as="geometry">
                        <mxPoint y="3" as="sourcePoint"/>
                        <mxPoint x="10" y="3" as="targetPoint"/>
                    </mxGeometry>
                </mxCell>
                <mxCell id="344" value="" style="endArrow=none;html=1;" edge="1" parent="341">
                    <mxGeometry width="50" height="50" relative="1" as="geometry">
                        <mxPoint y="6" as="sourcePoint"/>
                        <mxPoint x="10" y="6" as="targetPoint"/>
                    </mxGeometry>
                </mxCell>
                <mxCell id="350" value="" style="group" vertex="1" connectable="0" parent="1">
                    <mxGeometry x="584" y="-274" width="60" height="69" as="geometry"/>
                </mxCell>
                <mxCell id="351" value="" style="group;aspect=fixed;" vertex="1" connectable="0" parent="350">
                    <mxGeometry x="6" width="50" height="44.44" as="geometry"/>
                </mxCell>
                <mxCell id="352" value="" style="rounded=0;whiteSpace=wrap;html=1;shadow=0;glass=0;" vertex="1" parent="351">
                    <mxGeometry y="11.110000000000046" width="38.888888888888886" height="33.32999999999995" as="geometry"/>
                </mxCell>
                <mxCell id="353" value="" style="endArrow=none;html=1;entryX=0;entryY=0;entryDx=0;entryDy=0;exitX=0;exitY=0;exitDx=0;exitDy=0;" edge="1" parent="351" source="352">
                    <mxGeometry width="50" height="50" relative="1" as="geometry">
                        <mxPoint x="-27.777777777777782" y="27.77500000000002" as="sourcePoint"/>
                        <mxPoint x="11.111111111111175" y="6.31530383543576e-14" as="targetPoint"/>
                    </mxGeometry>
                </mxCell>
                <mxCell id="354" value="" style="endArrow=none;html=1;entryX=0;entryY=0;entryDx=0;entryDy=0;exitX=0;exitY=0;exitDx=0;exitDy=0;" edge="1" parent="351">
                    <mxGeometry width="50" height="50" relative="1" as="geometry">
                        <mxPoint x="38.888888888888886" y="44.439999999999934" as="sourcePoint"/>
                        <mxPoint x="50" y="33.32999999999995" as="targetPoint"/>
                    </mxGeometry>
                </mxCell>
                <mxCell id="355" value="" style="endArrow=none;html=1;entryX=0;entryY=0;entryDx=0;entryDy=0;exitX=0;exitY=0;exitDx=0;exitDy=0;" edge="1" parent="351">
                    <mxGeometry width="50" height="50" relative="1" as="geometry">
                        <mxPoint x="38.888888888888886" y="11.110000000000046" as="sourcePoint"/>
                        <mxPoint x="50" as="targetPoint"/>
                    </mxGeometry>
                </mxCell>
                <mxCell id="356" value="" style="endArrow=none;html=1;" edge="1" parent="351">
                    <mxGeometry width="50" height="50" relative="1" as="geometry">
                        <mxPoint x="11.11111111111111" y="6.31530383543576e-14" as="sourcePoint"/>
                        <mxPoint x="50" y="6.31530383543576e-14" as="targetPoint"/>
                    </mxGeometry>
                </mxCell>
                <mxCell id="357" value="" style="endArrow=none;html=1;" edge="1" parent="351">
                    <mxGeometry width="50" height="50" relative="1" as="geometry">
                        <mxPoint x="50" y="6.31530383543576e-14" as="sourcePoint"/>
                        <mxPoint x="50" y="33.33000000000001" as="targetPoint"/>
                    </mxGeometry>
                </mxCell>
                <mxCell id="358" value="Products" style="text;html=1;strokeColor=none;fillColor=none;align=center;verticalAlign=middle;whiteSpace=wrap;rounded=0;shadow=0;glass=0;" vertex="1" parent="350">
                    <mxGeometry y="47" width="60" height="22" as="geometry"/>
                </mxCell>
                <mxCell id="368" value="Stocker Dashboard" style="text;html=1;strokeColor=none;fillColor=none;align=center;verticalAlign=middle;whiteSpace=wrap;rounded=0;shadow=0;glass=0;" vertex="1" parent="1">
                    <mxGeometry x="577" y="-342.5" width="76" height="33" as="geometry"/>
                </mxCell>
                <mxCell id="372" value="Stocker" style="endArrow=classic;startArrow=none;html=1;shadow=0;sketch=1;strokeWidth=4;fontSize=13;fontColor=#FFFFFF;fillColor=#e3c800;strokeColor=#B09500;startFill=0;" edge="1" parent="1">
                    <mxGeometry width="50" height="50" relative="1" as="geometry">
                        <mxPoint x="200" y="-10" as="sourcePoint"/>
                        <mxPoint x="480" y="-140" as="targetPoint"/>
                        <Array as="points"/>
                    </mxGeometry>
                </mxCell>
                <mxCell id="374" value="" style="endArrow=classic;startArrow=none;html=1;shadow=0;sketch=1;strokeWidth=4;fontSize=13;fontColor=#FFFFFF;fillColor=#e3c800;strokeColor=#B09500;startFill=0;" edge="1" parent="1">
                    <mxGeometry width="50" height="50" relative="1" as="geometry">
                        <mxPoint x="640" y="-270" as="sourcePoint"/>
                        <mxPoint x="884.5" y="-514" as="targetPoint"/>
                        <Array as="points"/>
                    </mxGeometry>
                </mxCell>
                <mxCell id="375" value="" style="childLayout=tableLayout;recursiveResize=0;shadow=0;fillColor=none;rounded=0;glass=0;strokeColor=#FFFFFF;fontSize=13;fontColor=#999999;" vertex="1" parent="1">
                    <mxGeometry x="-1384" y="20" width="200" height="88.00000000000045" as="geometry"/>
                </mxCell>
                <mxCell id="376" value="" style="shape=tableRow;horizontal=0;startSize=0;swimlaneHead=0;swimlaneBody=0;top=0;left=0;bottom=0;right=0;dropTarget=0;collapsible=0;recursiveResize=0;expand=0;fontStyle=0;fillColor=none;strokeColor=inherit;rounded=0;shadow=0;glass=0;fontSize=13;fontColor=#999999;" vertex="1" parent="375">
                    <mxGeometry width="200" height="28" as="geometry"/>
                </mxCell>
                <mxCell id="377" value="Product" style="connectable=0;recursiveResize=0;strokeColor=inherit;fillColor=none;align=center;whiteSpace=wrap;html=1;rounded=0;shadow=0;glass=0;fontSize=13;fontColor=#999999;" vertex="1" parent="376">
                    <mxGeometry width="67" height="28" as="geometry">
                        <mxRectangle width="67" height="28" as="alternateBounds"/>
                    </mxGeometry>
                </mxCell>
                <mxCell id="378" value="Amount" style="connectable=0;recursiveResize=0;strokeColor=inherit;fillColor=none;align=center;whiteSpace=wrap;html=1;rounded=0;shadow=0;glass=0;fontSize=13;fontColor=#999999;" vertex="1" parent="376">
                    <mxGeometry x="67" width="53" height="28" as="geometry">
                        <mxRectangle width="53" height="28" as="alternateBounds"/>
                    </mxGeometry>
                </mxCell>
                <mxCell id="379" value="Total" style="connectable=0;recursiveResize=0;strokeColor=inherit;fillColor=none;align=center;whiteSpace=wrap;html=1;rounded=0;shadow=0;glass=0;fontSize=13;fontColor=#999999;" vertex="1" parent="376">
                    <mxGeometry x="120" width="80" height="28" as="geometry">
                        <mxRectangle width="80" height="28" as="alternateBounds"/>
                    </mxGeometry>
                </mxCell>
                <mxCell id="380" style="shape=tableRow;horizontal=0;startSize=0;swimlaneHead=0;swimlaneBody=0;top=0;left=0;bottom=0;right=0;dropTarget=0;collapsible=0;recursiveResize=0;expand=0;fontStyle=0;fillColor=none;strokeColor=inherit;rounded=0;shadow=0;glass=0;fontSize=13;fontColor=#999999;" vertex="1" parent="375">
                    <mxGeometry y="28" width="200" height="30" as="geometry"/>
                </mxCell>
                <mxCell id="381" value="Name1" style="connectable=0;recursiveResize=0;strokeColor=inherit;fillColor=none;align=center;whiteSpace=wrap;html=1;rounded=0;shadow=0;glass=0;fontSize=13;fontColor=#999999;" vertex="1" parent="380">
                    <mxGeometry width="67" height="30" as="geometry">
                        <mxRectangle width="67" height="30" as="alternateBounds"/>
                    </mxGeometry>
                </mxCell>
                <mxCell id="382" value="11,000" style="connectable=0;recursiveResize=0;strokeColor=inherit;fillColor=none;align=center;whiteSpace=wrap;html=1;rounded=0;shadow=0;glass=0;fontSize=13;fontColor=#999999;" vertex="1" parent="380">
                    <mxGeometry x="67" width="53" height="30" as="geometry">
                        <mxRectangle width="53" height="30" as="alternateBounds"/>
                    </mxGeometry>
                </mxCell>
                <mxCell id="383" value="100,000.00" style="connectable=0;recursiveResize=0;strokeColor=inherit;fillColor=none;align=center;whiteSpace=wrap;html=1;rounded=0;shadow=0;glass=0;fontSize=13;fontColor=#999999;" vertex="1" parent="380">
                    <mxGeometry x="120" width="80" height="30" as="geometry">
                        <mxRectangle width="80" height="30" as="alternateBounds"/>
                    </mxGeometry>
                </mxCell>
                <mxCell id="384" style="shape=tableRow;horizontal=0;startSize=0;swimlaneHead=0;swimlaneBody=0;top=0;left=0;bottom=0;right=0;dropTarget=0;collapsible=0;recursiveResize=0;expand=0;fontStyle=0;fillColor=none;strokeColor=inherit;rounded=0;shadow=0;glass=0;fontSize=13;fontColor=#999999;" vertex="1" parent="375">
                    <mxGeometry y="58" width="200" height="30" as="geometry"/>
                </mxCell>
                <mxCell id="385" value="Name2" style="connectable=0;recursiveResize=0;strokeColor=inherit;fillColor=none;align=center;whiteSpace=wrap;html=1;rounded=0;shadow=0;glass=0;fontSize=13;fontColor=#999999;" vertex="1" parent="384">
                    <mxGeometry width="67" height="30" as="geometry">
                        <mxRectangle width="67" height="30" as="alternateBounds"/>
                    </mxGeometry>
                </mxCell>
                <mxCell id="386" value="22,000" style="connectable=0;recursiveResize=0;strokeColor=inherit;fillColor=none;align=center;whiteSpace=wrap;html=1;rounded=0;shadow=0;glass=0;fontSize=13;fontColor=#999999;" vertex="1" parent="384">
                    <mxGeometry x="67" width="53" height="30" as="geometry">
                        <mxRectangle width="53" height="30" as="alternateBounds"/>
                    </mxGeometry>
                </mxCell>
                <mxCell id="387" value="200,000.00" style="connectable=0;recursiveResize=0;strokeColor=inherit;fillColor=none;align=center;whiteSpace=wrap;html=1;rounded=0;shadow=0;glass=0;fontSize=13;fontColor=#999999;" vertex="1" parent="384">
                    <mxGeometry x="120" width="80" height="30" as="geometry">
                        <mxRectangle width="80" height="30" as="alternateBounds"/>
                    </mxGeometry>
                </mxCell>
                <mxCell id="388" value="Cashier" style="endArrow=classic;startArrow=none;html=1;shadow=0;sketch=1;strokeWidth=4;fontSize=13;fontColor=#FFFFFF;fillColor=#e3c800;strokeColor=#B09500;startFill=0;" edge="1" parent="1">
                    <mxGeometry width="50" height="50" relative="1" as="geometry">
                        <mxPoint x="-80" y="60" as="sourcePoint"/>
                        <mxPoint x="-300" y="40" as="targetPoint"/>
                        <Array as="points"/>
                    </mxGeometry>
                </mxCell>
                <mxCell id="390" value="" style="endArrow=classic;startArrow=none;html=1;shadow=0;sketch=1;strokeWidth=4;fontSize=13;fontColor=#FFFFFF;fillColor=#e3c800;strokeColor=#B09500;startFill=0;exitX=0.5;exitY=1;exitDx=0;exitDy=0;" edge="1" parent="1" source="58">
                    <mxGeometry width="50" height="50" relative="1" as="geometry">
                        <mxPoint x="225" y="820.0000000000002" as="sourcePoint"/>
                        <mxPoint x="241" y="963" as="targetPoint"/>
                        <Array as="points"/>
                    </mxGeometry>
                </mxCell>
                <mxCell id="392" value="&lt;span style=&quot;white-space: pre;&quot;&gt;&#9;&lt;/span&gt;MyStore / Stocker" style="rounded=0;whiteSpace=wrap;html=1;align=left;verticalAlign=top;" vertex="1" parent="1">
                    <mxGeometry x="-560" y="-90" width="230" height="330" as="geometry"/>
                </mxCell>
                <mxCell id="393" value="" style="endArrow=none;html=1;exitX=0.002;exitY=0.09;exitDx=0;exitDy=0;exitPerimeter=0;" edge="1" parent="1">
                    <mxGeometry width="50" height="50" relative="1" as="geometry">
                        <mxPoint x="-559.54" y="-64.29999999999973" as="sourcePoint"/>
                        <mxPoint x="-330" y="-64" as="targetPoint"/>
                    </mxGeometry>
                </mxCell>
                <mxCell id="394" value="" style="group" vertex="1" connectable="0" parent="1">
                    <mxGeometry x="-552" y="-80" width="10.000000000000028" height="6" as="geometry"/>
                </mxCell>
                <mxCell id="395" value="" style="endArrow=none;html=1;" edge="1" parent="394">
                    <mxGeometry width="50" height="50" relative="1" as="geometry">
                        <mxPoint x="2.842170943040401e-14" as="sourcePoint"/>
                        <mxPoint x="10.000000000000028" as="targetPoint"/>
                    </mxGeometry>
                </mxCell>
                <mxCell id="396" value="" style="endArrow=none;html=1;" edge="1" parent="394">
                    <mxGeometry width="50" height="50" relative="1" as="geometry">
                        <mxPoint y="3" as="sourcePoint"/>
                        <mxPoint x="10" y="3" as="targetPoint"/>
                    </mxGeometry>
                </mxCell>
                <mxCell id="397" value="" style="endArrow=none;html=1;" edge="1" parent="394">
                    <mxGeometry width="50" height="50" relative="1" as="geometry">
                        <mxPoint y="6" as="sourcePoint"/>
                        <mxPoint x="10" y="6" as="targetPoint"/>
                    </mxGeometry>
                </mxCell>
                <mxCell id="398" value="" style="group" vertex="1" connectable="0" parent="1">
                    <mxGeometry x="-486" y="20" width="60" height="69" as="geometry"/>
                </mxCell>
                <mxCell id="399" value="" style="group;aspect=fixed;" vertex="1" connectable="0" parent="398">
                    <mxGeometry x="6" width="50" height="44.44" as="geometry"/>
                </mxCell>
                <mxCell id="400" value="" style="rounded=0;whiteSpace=wrap;html=1;shadow=0;glass=0;" vertex="1" parent="399">
                    <mxGeometry y="11.110000000000046" width="38.888888888888886" height="33.32999999999995" as="geometry"/>
                </mxCell>
                <mxCell id="401" value="" style="endArrow=none;html=1;entryX=0;entryY=0;entryDx=0;entryDy=0;exitX=0;exitY=0;exitDx=0;exitDy=0;" edge="1" parent="399" source="400">
                    <mxGeometry width="50" height="50" relative="1" as="geometry">
                        <mxPoint x="-27.777777777777782" y="27.77500000000002" as="sourcePoint"/>
                        <mxPoint x="11.111111111111175" y="6.31530383543576e-14" as="targetPoint"/>
                    </mxGeometry>
                </mxCell>
                <mxCell id="402" value="" style="endArrow=none;html=1;entryX=0;entryY=0;entryDx=0;entryDy=0;exitX=0;exitY=0;exitDx=0;exitDy=0;" edge="1" parent="399">
                    <mxGeometry width="50" height="50" relative="1" as="geometry">
                        <mxPoint x="38.888888888888886" y="44.439999999999934" as="sourcePoint"/>
                        <mxPoint x="50" y="33.32999999999995" as="targetPoint"/>
                    </mxGeometry>
                </mxCell>
                <mxCell id="403" value="" style="endArrow=none;html=1;entryX=0;entryY=0;entryDx=0;entryDy=0;exitX=0;exitY=0;exitDx=0;exitDy=0;" edge="1" parent="399">
                    <mxGeometry width="50" height="50" relative="1" as="geometry">
                        <mxPoint x="38.888888888888886" y="11.110000000000046" as="sourcePoint"/>
                        <mxPoint x="50" as="targetPoint"/>
                    </mxGeometry>
                </mxCell>
                <mxCell id="404" value="" style="endArrow=none;html=1;" edge="1" parent="399">
                    <mxGeometry width="50" height="50" relative="1" as="geometry">
                        <mxPoint x="11.11111111111111" y="6.31530383543576e-14" as="sourcePoint"/>
                        <mxPoint x="50" y="6.31530383543576e-14" as="targetPoint"/>
                    </mxGeometry>
                </mxCell>
                <mxCell id="405" value="" style="endArrow=none;html=1;" edge="1" parent="399">
                    <mxGeometry width="50" height="50" relative="1" as="geometry">
                        <mxPoint x="50" y="6.31530383543576e-14" as="sourcePoint"/>
                        <mxPoint x="50" y="33.33000000000001" as="targetPoint"/>
                    </mxGeometry>
                </mxCell>
                <mxCell id="406" value="Sells" style="text;html=1;strokeColor=none;fillColor=none;align=center;verticalAlign=middle;whiteSpace=wrap;rounded=0;shadow=0;glass=0;" vertex="1" parent="398">
                    <mxGeometry y="47" width="60" height="22" as="geometry"/>
                </mxCell>
                <mxCell id="407" value="Stocker Dashboard" style="text;html=1;strokeColor=none;fillColor=none;align=center;verticalAlign=middle;whiteSpace=wrap;rounded=0;shadow=0;glass=0;" vertex="1" parent="1">
                    <mxGeometry x="-493" y="-48.5" width="76" height="33" as="geometry"/>
                </mxCell>
                <mxCell id="408" value="" style="endArrow=classic;startArrow=none;html=1;shadow=0;sketch=1;strokeWidth=4;fontSize=13;fontColor=#FFFFFF;fillColor=#e3c800;strokeColor=#B09500;startFill=0;exitX=0;exitY=0.5;exitDx=0;exitDy=0;" edge="1" parent="1" source="400">
                    <mxGeometry width="50" height="50" relative="1" as="geometry">
                        <mxPoint x="-590" y="50" as="sourcePoint"/>
                        <mxPoint x="-800" y="50" as="targetPoint"/>
                        <Array as="points"/>
                    </mxGeometry>
                </mxCell>
                <mxCell id="409" value="" style="endArrow=classic;startArrow=none;html=1;shadow=0;sketch=1;strokeWidth=4;fontSize=13;fontColor=#FFFFFF;fillColor=#e3c800;strokeColor=#B09500;startFill=0;" edge="1" parent="1">
                    <mxGeometry width="50" height="50" relative="1" as="geometry">
                        <mxPoint x="-1060" y="31" as="sourcePoint"/>
                        <mxPoint x="-1150" y="30.000000000000227" as="targetPoint"/>
                        <Array as="points"/>
                    </mxGeometry>
                </mxCell>
                <mxCell id="410" value="-Cashier can just see the sells he created.&lt;br&gt;&lt;br&gt;-Admin can see all the sells" style="shape=callout;whiteSpace=wrap;html=1;perimeter=calloutPerimeter;rounded=0;shadow=0;glass=0;strokeColor=#FFFFFF;fontSize=13;fontColor=#999999;fillColor=#18141D;align=left;verticalAlign=top;" vertex="1" parent="1">
                    <mxGeometry x="-972" y="-260" width="147" height="140" as="geometry"/>
                </mxCell>
                <mxCell id="411" value="Delete" style="rounded=1;whiteSpace=wrap;html=1;arcSize=50;strokeColor=none;strokeWidth=1;fillColor=#6C767D;fontColor=#FFFFFF;whiteSpace=wrap;align=center;verticalAlign=middle;spacingLeft=0;fontStyle=1;fontSize=14;spacing=10;shadow=0;glass=0;" vertex="1" parent="1">
                    <mxGeometry x="560" y="1280" width="90" height="23.5" as="geometry"/>
                </mxCell>
                <mxCell id="412" value="Delete" style="rounded=1;whiteSpace=wrap;html=1;arcSize=50;strokeColor=none;strokeWidth=1;fillColor=#6C767D;fontColor=#FFFFFF;whiteSpace=wrap;align=center;verticalAlign=middle;spacingLeft=0;fontStyle=1;fontSize=14;spacing=10;shadow=0;glass=0;" vertex="1" parent="1">
                    <mxGeometry x="-1387" y="135" width="90" height="23.5" as="geometry"/>
                </mxCell>
                <mxCell id="413" value="Save/Update" style="rounded=1;whiteSpace=wrap;html=1;arcSize=50;strokeColor=none;strokeWidth=1;fillColor=#6C767D;fontColor=#FFFFFF;whiteSpace=wrap;align=center;verticalAlign=middle;spacingLeft=0;fontStyle=1;fontSize=14;spacing=10;shadow=0;glass=0;" vertex="1" parent="1">
                    <mxGeometry x="-1382" y="-70" width="102" height="23.5" as="geometry"/>
                </mxCell>
                <mxCell id="414" value="Save/Update" style="rounded=1;whiteSpace=wrap;html=1;arcSize=50;strokeColor=none;strokeWidth=1;fillColor=#6C767D;fontColor=#FFFFFF;whiteSpace=wrap;align=center;verticalAlign=middle;spacingLeft=0;fontStyle=1;fontSize=14;spacing=10;shadow=0;glass=0;" vertex="1" parent="1">
                    <mxGeometry x="447" y="1027.5" width="103" height="23.5" as="geometry"/>
                </mxCell>
                <mxCell id="415" value="Save/Update" style="rounded=1;whiteSpace=wrap;html=1;arcSize=50;strokeColor=none;strokeWidth=1;fillColor=#6C767D;fontColor=#FFFFFF;whiteSpace=wrap;align=center;verticalAlign=middle;spacingLeft=0;fontStyle=1;fontSize=14;spacing=10;shadow=0;glass=0;" vertex="1" parent="1">
                    <mxGeometry x="1240" y="-512.5" width="100" height="23.5" as="geometry"/>
                </mxCell>
                <mxCell id="418" value="" style="endArrow=classic;startArrow=none;html=1;shadow=0;sketch=1;strokeWidth=4;fontSize=13;fontColor=#FFFFFF;fillColor=#e3c800;strokeColor=#B09500;startFill=0;exitX=0;exitY=0.5;exitDx=0;exitDy=0;" edge="1" parent="1">
                    <mxGeometry width="50" height="50" relative="1" as="geometry">
                        <mxPoint x="128" y="583.3850000000001" as="sourcePoint"/>
                        <mxPoint x="-790" y="150" as="targetPoint"/>
                        <Array as="points">
                            <mxPoint x="-430" y="460"/>
                        </Array>
                    </mxGeometry>
                </mxCell>
                <mxCell id="419" value="" style="endArrow=classic;startArrow=none;html=1;shadow=0;sketch=1;strokeWidth=4;fontSize=13;fontColor=#FFFFFF;fillColor=#e3c800;strokeColor=#B09500;startFill=0;exitX=0;exitY=0.5;exitDx=0;exitDy=0;" edge="1" parent="1">
                    <mxGeometry width="50" height="50" relative="1" as="geometry">
                        <mxPoint x="272.75" y="580.3850000000002" as="sourcePoint"/>
                        <mxPoint x="990" y="-170" as="targetPoint"/>
                        <Array as="points">
                            <mxPoint x="830.75" y="457"/>
                        </Array>
                    </mxGeometry>
                </mxCell>
            </root>
        </mxGraphModel>
    </diagram>
</mxfile>
